<svg width="215" height="64" viewBox="0 0 215 64" fill="none" xmlns="http://www.w3.org/2000/svg">
<g clip-path="url(#clip0_1_297)">
<path d="M197.726 0.000207999H17.483C16.826 0.000207999 16.1769 0.000207999 15.5216 0.00340799C14.9731 0.00660798 14.4289 0.0159039 13.8751 0.0237279C12.6721 0.0363708 11.4718 0.13089 10.2848 0.306463C9.09946 0.485859 7.95126 0.82407 6.87902 1.30966C5.80809 1.79936 4.82956 2.43567 3.97891 3.19551C3.1238 3.95321 2.411 4.82902 1.86792 5.78925C1.32334 6.74756 0.945721 7.77448 0.748116 8.83455C0.548632 9.89327 0.441287 10.9642 0.427046 12.0377C0.41042 12.5283 0.408664 13.0205 0.399902 13.5111V50.4938C0.408664 50.9906 0.41042 51.4719 0.427046 51.9688C0.441292 53.0423 0.548636 54.1132 0.748116 55.1719C0.945176 56.2325 1.32281 57.2601 1.86792 58.2187C2.41075 59.1759 3.12366 60.0481 3.97891 60.8016C4.82633 61.5648 5.8055 62.2016 6.87902 62.6875C7.95125 63.1744 9.09933 63.5146 10.2848 63.6968C11.472 63.871 12.6721 63.9655 13.8751 63.9797C14.4289 63.9906 14.9731 63.9968 15.5216 63.9968C16.1769 64 16.826 64 17.483 64H197.726C198.37 64 199.025 64 199.669 63.9968C200.215 63.9968 200.774 63.9906 201.32 63.9797C202.521 63.9663 203.719 63.8717 204.904 63.6968C206.093 63.5134 207.245 63.1732 208.323 62.6875C209.395 62.2013 210.373 61.5646 211.22 60.8016C212.073 60.0452 212.788 59.1735 213.337 58.2187C213.878 57.2594 214.252 56.2319 214.446 55.1719C214.646 54.113 214.757 53.0424 214.779 51.9688C214.786 51.4719 214.786 50.9906 214.786 50.4938C214.8 49.9125 214.8 49.3344 214.8 48.7437V15.258C214.8 14.672 214.8 14.0908 214.786 13.5111C214.786 13.0205 214.786 12.5283 214.779 12.0377C214.757 10.964 214.646 9.89335 214.446 8.83448C214.252 7.77503 213.878 6.74819 213.337 5.78918C212.231 3.86451 210.477 2.29784 208.323 1.30952C207.245 0.825113 206.093 0.486991 204.904 0.306319C203.719 0.129972 202.521 0.0354203 201.32 0.0235039C200.774 0.0156959 200.215 0.00631998 199.669 0.00319999C199.025 0 198.37 0 197.726 0V0.000207999Z" fill="#A6A6A6"/>
<path d="M15.5304 62.5999C14.9845 62.5999 14.4518 62.5936 13.9102 62.5827C12.7882 62.5697 11.6689 62.4825 10.5613 62.3218C9.52856 62.1629 8.52811 61.8675 7.59295 61.4451C6.66637 61.0263 5.82125 60.4771 5.08997 59.8186C4.34811 59.1678 3.73047 58.4131 3.26154 57.5842C2.78744 56.7499 2.45934 55.8557 2.28866 54.9327C2.10434 53.9409 2.00461 52.938 1.99034 51.9327C1.97898 51.5953 1.96411 50.4717 1.96411 50.4717V13.511C1.96411 13.511 1.97995 12.4047 1.99043 12.0797C2.00409 11.076 2.10324 10.0747 2.28701 9.0844C2.458 8.15883 2.78636 7.26203 3.26072 6.42505C3.72792 5.59675 4.34213 4.84142 5.07952 4.18833C5.81609 3.52904 6.66391 2.97702 7.59207 2.55239C8.52508 2.1314 9.52364 1.83803 10.5543 1.68209C11.6655 1.51979 12.7887 1.43205 13.9146 1.41959L15.5313 1.40005H199.66L201.296 1.42037C202.411 1.43221 203.525 1.51917 204.626 1.68052C205.667 1.83841 206.676 2.13384 207.619 2.55708C209.479 3.41283 210.992 4.76671 211.946 6.42895C212.413 7.26016 212.736 8.14964 212.905 9.06721C213.091 10.0656 213.195 11.0748 213.216 12.0867C213.222 12.5399 213.222 13.0266 213.222 13.511C213.236 14.111 213.236 14.682 213.236 15.2578V48.7436C213.236 49.3249 213.236 49.8921 213.222 50.4639C213.222 50.9842 213.222 51.4609 213.215 51.9514C213.194 52.9453 213.091 53.9365 212.908 54.917C212.741 55.8467 212.415 56.7479 211.941 57.589C211.469 58.4089 210.855 59.1571 210.121 59.8061C209.389 60.4682 208.543 61.0206 207.614 61.4421C206.673 61.8677 205.665 62.1642 204.626 62.3218C203.518 62.4833 202.399 62.5705 201.277 62.5827C200.752 62.5936 200.202 62.5999 199.669 62.5999L197.726 62.6031L15.5304 62.5999Z" fill="black"/>
<path d="M44.7787 30.5855C44.7979 29.0869 45.1952 27.6175 45.9334 26.314C46.6716 25.0106 47.7268 23.9154 49.0009 23.1305C48.1915 21.9721 47.1238 21.0188 45.8824 20.3463C44.6411 19.6738 43.2604 19.3006 41.85 19.2564C38.8413 18.9399 35.9246 21.0605 34.3914 21.0605C32.8286 21.0605 30.468 19.2878 27.9261 19.3402C26.2819 19.3934 24.6796 19.8726 23.2751 20.7309C21.8706 21.5893 20.712 22.7976 19.9121 24.2381C16.447 30.2502 19.0316 39.086 22.3509 43.9457C24.0116 46.3253 25.9525 48.9835 28.4921 48.8892C30.9773 48.7859 31.9055 47.3011 34.9053 47.3011C37.8772 47.3011 38.7481 48.8892 41.3392 48.8293C44.0059 48.7859 45.6861 46.4391 47.2885 44.0369C48.4817 42.3413 49.3999 40.4672 50.009 38.4842C48.4597 37.8276 47.1376 36.7284 46.2075 35.3238C45.2774 33.9192 44.7805 32.2713 44.7787 30.5855Z" fill="white"/>
<path d="M39.8844 16.0604C41.3384 14.3112 42.0548 12.0629 41.8813 9.79297C39.6599 10.0268 37.608 11.0907 36.1343 12.7728C35.4138 13.5945 34.862 14.5505 34.5104 15.5861C34.1588 16.6217 34.0143 17.7166 34.0852 18.8082C35.1963 18.8197 36.2955 18.5783 37.3 18.1023C38.3045 17.6264 39.1882 16.9282 39.8844 16.0604Z" fill="white"/>
<path d="M76.193 26.1656H67.7122L65.6756 32.1921H62.0835L70.1163 9.89555H73.8484L81.8812 32.1921H78.2279L76.193 26.1656ZM68.5906 23.3847H75.313L71.9991 13.6041H71.9063L68.5906 23.3847Z" fill="white"/>
<path d="M99.2296 24.0649C99.2296 29.1165 96.5315 32.3621 92.46 32.3621C91.4286 32.4162 90.4029 32.1781 89.5002 31.6751C88.5976 31.1721 87.8546 30.4245 87.3562 29.518H87.2791V37.5697H83.9495V15.9361H87.1724V18.6398H87.2337C87.755 17.7377 88.5106 16.994 89.4201 16.4879C90.3296 15.9819 91.359 15.7324 92.3988 15.766C96.5157 15.766 99.2296 19.0273 99.2296 24.0649ZM95.8072 24.0649C95.8072 20.7738 94.1099 18.61 91.5204 18.61C88.9764 18.61 87.2652 20.8193 87.2652 24.0649C87.2652 27.3403 88.9764 29.5338 91.5204 29.5338C94.11 29.5338 95.8072 27.3859 95.8072 24.0649Z" fill="white"/>
<path d="M117.083 24.0649C117.083 29.1165 114.385 32.3621 110.314 32.3621C109.282 32.4162 108.257 32.1781 107.354 31.6751C106.451 31.1721 105.708 30.4245 105.21 29.518H105.133V37.5697H101.803V15.936H105.026V18.6398H105.087C105.609 17.7376 106.364 16.994 107.274 16.4879C108.183 15.9819 109.213 15.7324 110.252 15.766C114.37 15.766 117.083 19.0273 117.083 24.0649ZM113.661 24.0649C113.661 20.7737 111.964 18.61 109.374 18.61C106.83 18.61 105.119 20.8193 105.119 24.0649C105.119 27.3403 106.83 29.5338 109.374 29.5338C111.964 29.5338 113.661 27.3859 113.661 24.0649H113.661Z" fill="white"/>
<path d="M128.883 25.9798C129.13 28.1908 131.273 29.6426 134.202 29.6426C137.009 29.6426 139.028 28.1908 139.028 26.1971C139.028 24.4665 137.81 23.4302 134.927 22.7201L132.043 22.024C127.958 21.035 126.061 19.1203 126.061 16.0132C126.061 12.1662 129.406 9.52382 134.157 9.52382C138.858 9.52382 142.081 12.1662 142.19 16.0132H138.828C138.627 13.7881 136.792 12.445 134.11 12.445C131.427 12.445 129.592 13.8039 129.592 15.7818C129.592 17.3581 130.764 18.2857 133.632 18.9957L136.083 19.5989C140.648 20.6808 142.545 22.5184 142.545 25.7797C142.545 29.9511 139.229 32.5637 133.956 32.5637C129.021 32.5637 125.69 30.0125 125.475 25.9796L128.883 25.9798Z" fill="white"/>
<path d="M149.731 12.0891V15.9361H152.816V18.5785H149.731V27.5402C149.731 28.9324 150.348 29.5812 151.704 29.5812C152.071 29.5748 152.436 29.549 152.8 29.504V32.1306C152.19 32.2448 151.57 32.2965 150.95 32.2849C147.666 32.2849 146.385 31.0488 146.385 27.8961V18.5785H144.027V15.9361H146.385V12.0891H149.731Z" fill="white"/>
<path d="M154.602 24.0649C154.602 18.9502 157.608 15.7362 162.295 15.7362C166.998 15.7362 169.99 18.9501 169.99 24.0649C169.99 29.1937 167.014 32.3937 162.295 32.3937C157.578 32.3937 154.602 29.1937 154.602 24.0649ZM166.598 24.0649C166.598 20.5563 164.993 18.4856 162.295 18.4856C159.597 18.4856 157.994 20.5721 157.994 24.0649C157.994 27.5875 159.597 29.6426 162.295 29.6426C164.993 29.6426 166.598 27.5875 166.598 24.0649H166.598Z" fill="white"/>
<path d="M172.736 15.9363H175.911V18.7032H175.988C176.203 17.839 176.708 17.0753 177.419 16.5405C178.129 16.0056 179.002 15.7322 179.89 15.7662C180.274 15.7648 180.657 15.8066 181.031 15.8907V19.0118C180.547 18.8634 180.041 18.7953 179.535 18.8101C179.051 18.7905 178.569 18.8759 178.121 19.0607C177.674 19.2454 177.271 19.525 176.942 19.8803C176.612 20.2357 176.363 20.6582 176.212 21.1191C176.06 21.58 176.01 22.0681 176.065 22.5502V32.1922H172.736L172.736 15.9363Z" fill="white"/>
<path d="M196.383 27.4175C195.935 30.3685 193.067 32.3937 189.398 32.3937C184.679 32.3937 181.75 29.2252 181.75 24.1421C181.75 19.0431 184.695 15.7362 189.258 15.7362C193.746 15.7362 196.568 18.8257 196.568 23.7546V24.8978H185.111V25.0995C185.058 25.6977 185.133 26.3004 185.33 26.8675C185.528 27.4346 185.843 27.9531 186.256 28.3886C186.669 28.8241 187.169 29.1666 187.724 29.3934C188.279 29.6202 188.876 29.726 189.475 29.7039C190.262 29.7778 191.051 29.5952 191.726 29.1832C192.401 28.7713 192.925 28.152 193.221 27.4175L196.383 27.4175ZM185.127 22.5658H193.237C193.267 22.0278 193.185 21.4895 192.998 20.9846C192.81 20.4797 192.52 20.0191 192.147 19.6317C191.773 19.2443 191.324 18.9384 190.827 18.7334C190.329 18.5283 189.795 18.4284 189.258 18.44C188.716 18.4367 188.178 18.5411 187.676 18.7471C187.175 18.9532 186.719 19.2567 186.335 19.6403C185.951 20.0239 185.646 20.4799 185.439 20.982C185.231 21.4841 185.126 22.0224 185.127 22.5658V22.5658Z" fill="white"/>
<path d="M63.4219 40.2364L61.9829 44.6763H63.9065L64.7396 40.2364H63.4219Z" fill="white"/>
<path d="M71.6426 49.6854H68.068V49.5488C68.4315 49.0327 68.6208 48.2282 68.689 47.3251L68.901 44.3803H71.6426V49.6854ZM67.1289 53.3511V51.1881H73.0664V53.3511H74.7931V49.6854H73.5208V42.8852H67.2879L67.0001 47.2188C66.9244 48.3345 66.6669 49.3211 66.0535 49.6854H65.4021V53.3511H67.1289Z" fill="white"/>
<path d="M80.1284 51.3551C82.6049 51.3551 84.112 49.7309 84.112 47.0366C84.112 44.35 82.5974 42.7182 80.1284 42.7182C77.6671 42.7182 76.1448 44.3575 76.1448 47.0366C76.1448 49.7309 77.6444 51.3551 80.1284 51.3551ZM80.1284 49.7765C78.8182 49.7765 78.0685 48.7747 78.0685 47.0366C78.0685 45.3062 78.8182 44.2968 80.1284 44.2968C81.4311 44.2968 82.1808 45.3062 82.1808 47.0366C82.1808 48.7747 81.4386 49.7765 80.1284 49.7765Z" fill="white"/>
<path d="M91.6891 51.1881H93.5673V42.8852H91.6891V46.1639H88.1826V42.8852H86.3044V51.1881H88.1826V47.6666H91.6891V51.1881Z" fill="white"/>
<path d="M108.244 44.9647V40.2364H106.321V44.9647H105.919L102.216 40.2364H100.004L104.314 45.6174L99.7014 51.1881H102.042L105.912 46.4826H106.321V51.1881H108.244V46.4826H108.653L112.523 51.1881H114.894L110.259 45.5795L114.538 40.2364H112.349L108.646 44.9647H108.244Z" fill="white"/>
<path d="M123.092 42.8852H121.107L119.206 48.8961H119.078L117.162 42.8852H115.147L118.214 51.1502V53.9507H120.055V51.1502L123.092 42.8852Z" fill="white"/>
<path d="M127.238 47.621L129.995 51.1881H132.274L128.768 46.7179L132.115 42.8852H129.949L127.223 46.2094H126.806V42.8852H124.928V51.1881H126.806V47.621H127.238Z" fill="white"/>
<path d="M140.071 42.8852H133.088V44.3879H135.64V51.1881H137.519V44.3879H140.071V42.8852Z" fill="white"/>
<path d="M147.368 47.6362C147.209 49.0099 146.489 49.7916 145.33 49.7916C144.172 49.7916 143.452 49.0099 143.293 47.6362H147.368ZM143.308 46.3308C143.49 45.0254 144.202 44.2741 145.33 44.2741C146.451 44.2741 147.171 45.0254 147.353 46.3308H143.308ZM145.33 42.7182C142.869 42.7182 141.347 44.3575 141.347 47.0366C141.347 49.7309 142.846 51.3551 145.33 51.3551C147.807 51.3551 149.314 49.7309 149.314 47.0366C149.314 44.35 147.799 42.7182 145.33 42.7182Z" fill="white"/>
<path d="M156.815 51.1881H158.694V42.8852H151.506V51.1881H153.385V44.3879H156.815V51.1881Z" fill="white"/>
<path d="M168.425 49.8448C167.592 49.8448 166.994 49.4274 166.994 48.7291C166.994 48.0536 167.486 47.6742 168.539 47.6059L170.409 47.4844V48.1447C170.409 49.1086 169.561 49.8448 168.425 49.8448ZM167.872 51.3247C168.955 51.3247 169.864 50.8542 170.326 50.0497H170.455V51.1881H172.265V45.5187C172.265 43.758 171.068 42.7182 168.94 42.7182C166.971 42.7182 165.6 43.6517 165.449 45.1165H167.221C167.395 44.5549 167.986 44.2513 168.849 44.2513C169.864 44.2513 170.409 44.7067 170.409 45.5187V46.217L168.274 46.346C166.259 46.4674 165.131 47.3326 165.131 48.8354C165.131 50.3533 166.274 51.3247 167.872 51.3247Z" fill="white"/>
<path d="M177.267 47.3251L177.471 44.3879H179.902V51.1881H181.773V42.8852H175.835L175.563 47.2188C175.479 48.6001 175.207 49.564 174.404 49.564C174.2 49.564 174.033 49.5336 173.95 49.5108V51.1805C174.056 51.2185 174.268 51.2716 174.578 51.2716C176.494 51.2716 177.108 49.7233 177.267 47.3251Z" fill="white"/>
</g>
<defs>
<clipPath id="clip0_1_297">
<rect width="214.4" height="64" fill="white" transform="translate(0.399902)"/>
</clipPath>
</defs>
</svg>
