<svg width="48" height="48" viewBox="0 0 48 48" fill="none" xmlns="http://www.w3.org/2000/svg">
<path d="M17 8.83333C17.0005 10.7975 16.2931 12.696 15.0074 14.181C13.7217 15.6659 11.944 16.6377 9.99996 16.9183V31C9.99996 32.8565 10.7375 34.637 12.0502 35.9497C13.363 37.2625 15.1434 38 17 38H23.2766L21.0133 35.7367C20.8414 35.5765 20.7035 35.3833 20.6078 35.1686C20.5122 34.9539 20.4607 34.7222 20.4566 34.4872C20.4524 34.2522 20.4957 34.0188 20.5837 33.8009C20.6717 33.583 20.8027 33.3851 20.9689 33.2189C21.135 33.0527 21.333 32.9217 21.5509 32.8337C21.7688 32.7457 22.0022 32.7025 22.2372 32.7066C22.4722 32.7108 22.7039 32.7622 22.9185 32.8578C23.1332 32.9535 23.3264 33.0914 23.4866 33.2633L28.7366 38.5133C29.0643 38.8415 29.2484 39.2862 29.2484 39.75C29.2484 40.2137 29.0643 40.6585 28.7366 40.9867L23.4866 46.2367C23.3264 46.4086 23.1332 46.5465 22.9185 46.6422C22.7039 46.7378 22.4722 46.7892 22.2372 46.7934C22.0022 46.7975 21.7688 46.7543 21.5509 46.6663C21.333 46.5783 21.135 46.4473 20.9689 46.2811C20.8027 46.1149 20.6717 45.917 20.5837 45.6991C20.4957 45.4811 20.4524 45.2477 20.4566 45.0128C20.4607 44.7778 20.5122 44.5461 20.6078 44.3314C20.7035 44.1167 20.8414 43.9235 21.0133 43.7633L23.2766 41.5H17C14.2152 41.5 11.5445 40.3937 9.57534 38.4246C7.60621 36.4555 6.49996 33.7848 6.49996 31V16.6617C4.62473 16.0965 3.01488 14.8766 1.9636 13.2241C0.91231 11.5716 0.489528 9.59646 0.772247 7.65842C1.05497 5.72038 2.02438 3.94836 3.50393 2.66506C4.98348 1.38177 6.87475 0.672586 8.83329 0.666664C10.9992 0.666664 13.0765 1.52708 14.608 3.05863C16.1395 4.59017 17 6.6674 17 8.83333ZM13.5 8.83333C13.5 7.59565 13.0083 6.40867 12.1331 5.5335C11.258 4.65833 10.071 4.16666 8.83329 4.16666C7.59562 4.16666 6.40863 4.65833 5.53346 5.5335C4.65829 6.40867 4.16663 7.59565 4.16663 8.83333C4.16663 10.071 4.65829 11.258 5.53346 12.1332C6.40863 13.0083 7.59562 13.5 8.83329 13.5C10.071 13.5 11.258 13.0083 12.1331 12.1332C13.0083 11.258 13.5 10.071 13.5 8.83333ZM47.3333 39.1667C47.3329 40.732 46.8826 42.2642 46.0362 43.5809C45.1897 44.8976 43.9827 45.9432 42.5588 46.5934C41.1349 47.2436 39.5541 47.4709 38.0048 47.2482C36.4554 47.0255 35.0026 46.3622 33.8195 45.3373C32.6364 44.3124 31.7727 42.9691 31.3313 41.4673C30.89 39.9655 30.8895 38.3685 31.33 36.8665C31.7704 35.3644 32.6333 34.0206 33.8158 32.995C34.9984 31.9694 36.4507 31.3053 38 31.0817V17C38 15.1435 37.2625 13.363 35.9497 12.0503C34.637 10.7375 32.8565 10 31 10H26.4733L28.7366 12.2633C29.0457 12.5951 29.214 13.0338 29.206 13.4872C29.198 13.9406 29.0144 14.3731 28.6937 14.6938C28.3731 15.0144 27.9405 15.1981 27.4872 15.2061C27.0338 15.2141 26.595 15.0458 26.2633 14.7367L21.0133 9.48666C20.6856 9.15854 20.5015 8.71375 20.5015 8.25C20.5015 7.78625 20.6856 7.34146 21.0133 7.01333L26.2633 1.76333C26.4235 1.59139 26.6167 1.45349 26.8314 1.35784C27.046 1.26219 27.2778 1.21076 27.5127 1.20662C27.7477 1.20247 27.9811 1.2457 28.199 1.33371C28.4169 1.42173 28.6149 1.55273 28.781 1.71891C28.9472 1.88508 29.0782 2.08303 29.1662 2.30094C29.2543 2.51884 29.2975 2.75224 29.2933 2.98722C29.2892 3.22219 29.2378 3.45392 29.1421 3.66859C29.0465 3.88325 28.9086 4.07645 28.7366 4.23666L26.4733 6.5H31C33.7847 6.5 36.4554 7.60624 38.4246 9.57538C40.3937 11.5445 41.5 14.2152 41.5 17V31.3383C44.874 32.3417 47.3333 35.4683 47.3333 39.1667ZM43.8333 39.1667C43.8333 37.929 43.3416 36.742 42.4665 35.8668C41.5913 34.9917 40.4043 34.5 39.1666 34.5C37.9289 34.5 36.742 34.9917 35.8668 35.8668C34.9916 36.742 34.5 37.929 34.5 39.1667C34.5 40.4043 34.9916 41.5913 35.8668 42.4665C36.742 43.3417 37.9289 43.8333 39.1666 43.8333C40.4043 43.8333 41.5913 43.3417 42.4665 42.4665C43.3416 41.5913 43.8333 40.4043 43.8333 39.1667Z" fill="#0AAD3B"/>
</svg>
