<svg width="56" height="56" viewBox="0 0 56 56" fill="none" xmlns="http://www.w3.org/2000/svg">
<path d="M29.75 43C29.75 42.4477 30.1977 42 30.75 42H35.75C36.3023 42 36.75 42.4477 36.75 43V48C36.75 48.5523 36.3023 49 35.75 49H30.75C30.1977 49 29.75 48.5523 29.75 48V43Z" fill="#0AAD3B"/>
<path d="M42 43C42 42.4477 42.4477 42 43 42H48C48.5523 42 49 42.4477 49 43V48C49 48.5523 48.5523 49 48 49H43C42.4477 49 42 48.5523 42 48V43Z" fill="#0AAD3B"/>
<path d="M29.75 30.75C29.75 30.1977 30.1977 29.75 30.75 29.75H35.75C36.3023 29.75 36.75 30.1977 36.75 30.75V35.75C36.75 36.3023 36.3023 36.75 35.75 36.75H30.75C30.1977 36.75 29.75 36.3023 29.75 35.75V30.75Z" fill="#0AAD3B"/>
<path d="M42 30.75C42 30.1977 42.4477 29.75 43 29.75H48C48.5523 29.75 49 30.1977 49 30.75V35.75C49 36.3023 48.5523 36.75 48 36.75H43C42.4477 36.75 42 36.3023 42 35.75V30.75Z" fill="#0AAD3B"/>
<path d="M49 20.25C49 19.6977 48.5523 19.25 48 19.25H38.5V12.25C38.5 9.275 36.225 7 33.25 7H22.75C19.775 7 17.5 9.275 17.5 12.25V19.25H7C5.95 19.25 5.25 19.95 5.25 21V21.35L8.575 42.525C8.75 44.275 10.325 45.5 12.075 45.5H25.25C25.8023 45.5 26.25 45.0523 26.25 44.5V43C26.25 42.4477 25.8023 42 25.25 42H12.9323C12.439 42 12.0194 41.6403 11.9441 41.1527L9.27815 23.9027C9.1845 23.2968 9.65326 22.75 10.2664 22.75H48C48.5523 22.75 49 22.3023 49 21.75V20.25ZM21 12.25C21 11.2 21.7 10.5 22.75 10.5H33.25C34.3 10.5 35 11.2 35 12.25V19.25H21V12.25Z" fill="#0AAD3B"/>
</svg>
