<svg width="58" height="58" viewBox="0 0 58 58" fill="none" xmlns="http://www.w3.org/2000/svg">
<path fill-rule="evenodd" clip-rule="evenodd" d="M44.0735 8.92653C52.5088 17.3619 52.5088 31.0382 44.0735 39.4735L28.8 54.747L13.5264 39.4735C5.09112 31.0382 5.09112 17.3619 13.5264 8.92653C21.9618 0.491206 35.6381 0.491206 44.0735 8.92653ZM41.7369 11.2623C48.9071 18.4322 48.9071 30.0573 41.7369 37.2273C34.5669 44.3973 22.942 44.3973 15.772 37.2273C8.60196 30.0573 8.60196 18.4322 15.772 11.2623C22.942 4.09228 34.5669 4.09228 41.7369 11.2623Z" fill="#0AAD3B"/>
<path d="M36.1809 29.1393H23.0919C22.1123 29.1393 21.2751 28.4335 21.1095 27.468L19.2797 16.7964H17.539C17.3344 16.7964 17.1382 16.7152 16.9934 16.5706C16.8489 16.4258 16.7676 16.2296 16.7676 16.025C16.7676 15.8204 16.8489 15.6242 16.9934 15.4795C17.1382 15.3349 17.3344 15.2536 17.539 15.2536H19.2796C19.641 15.2534 19.991 15.3801 20.2683 15.6117C20.5458 15.8433 20.7331 16.165 20.7976 16.5204L21.2686 19.1107H37.4433C37.6692 19.1107 37.8923 19.1604 38.0972 19.2562C38.3018 19.3519 38.483 19.4916 38.6278 19.665C38.7726 19.8385 38.8775 20.0417 38.935 20.2602C38.9928 20.4788 39.0017 20.7073 38.9613 20.9295L37.699 27.8725C37.6344 28.228 37.4472 28.5497 37.1697 28.7812C36.8922 29.0129 36.5422 29.1395 36.1809 29.1393Z" fill="#0AAD3B"/>
<path d="M34.5095 35.3102C35.7877 35.3102 36.8239 34.2741 36.8239 32.996C36.8239 31.7178 35.7877 30.6816 34.5095 30.6816C33.2314 30.6816 32.1953 31.7178 32.1953 32.996C32.1953 34.2741 33.2314 35.3102 34.5095 35.3102Z" fill="#0AAD3B"/>
<path d="M25.2529 35.3102C26.5311 35.3102 27.5673 34.2741 27.5673 32.996C27.5673 31.7178 26.5311 30.6816 25.2529 30.6816C23.9748 30.6816 22.9387 31.7178 22.9387 32.996C22.9387 34.2741 23.9748 35.3102 25.2529 35.3102Z" fill="#0AAD3B"/>
</svg>
