<svg width="54" height="41" viewBox="0 0 54 41" fill="none" xmlns="http://www.w3.org/2000/svg">
<path d="M0.400024 5.3875C0.400024 4.06473 0.925492 2.79614 1.86083 1.86081C2.79617 0.925469 4.06476 0.400002 5.38752 0.400002H35.3125C36.6353 0.400002 37.9039 0.925469 38.8392 1.86081C39.7746 2.79614 40.3 4.06473 40.3 5.3875V10.375H43.6915C44.4388 10.3757 45.1763 10.5442 45.8497 10.8683C46.523 11.1923 47.115 11.6634 47.5818 12.247L52.5061 18.3982C53.2146 19.2833 53.6005 20.3833 53.6 21.5171V28.6625C53.6 29.9853 53.0746 31.2539 52.1392 32.1892C51.2039 33.1245 49.9353 33.65 48.6125 33.65H46.95C46.95 35.4137 46.2494 37.1051 45.0023 38.3523C43.7552 39.5994 42.0637 40.3 40.3 40.3C38.5363 40.3 36.8449 39.5994 35.5978 38.3523C34.3507 37.1051 33.65 35.4137 33.65 33.65H17.025C17.0269 34.5364 16.8516 35.4142 16.5094 36.2319C16.1672 37.0495 15.6649 37.7905 15.0322 38.4113C14.3994 39.0321 13.649 39.5201 12.825 39.8466C12.0009 40.1732 11.1199 40.3317 10.2337 40.3128C9.3475 40.294 8.47401 40.0982 7.66458 39.7369C6.85516 39.3756 6.12613 38.8562 5.52035 38.2091C4.91458 37.562 4.44428 36.8003 4.13711 35.9688C3.82993 35.1374 3.69209 34.2529 3.73167 33.3674C2.75761 33.0245 1.91397 32.3878 1.31721 31.5451C0.72044 30.7023 0.399969 29.6951 0.400024 28.6625L0.400024 5.3875ZM4.70257 30.1787C5.30374 29.1945 6.15065 28.3836 7.16008 27.8258C8.1695 27.268 9.3067 26.9824 10.4599 26.9972C11.6131 27.012 12.7426 27.3265 13.7374 27.91C14.7323 28.4934 15.5581 29.3257 16.1339 30.325H34.5411C35.126 29.3151 35.9651 28.476 36.975 27.8911V5.3875C36.975 4.94658 36.7999 4.52372 36.4881 4.21194C36.1763 3.90016 35.7534 3.725 35.3125 3.725H5.38752C4.9466 3.725 4.52374 3.90016 4.21196 4.21194C3.90018 4.52372 3.72502 4.94658 3.72502 5.3875V28.6625C3.72476 28.9825 3.81686 29.2958 3.99026 29.5647C4.16366 29.8337 4.411 30.0469 4.70257 30.1787ZM40.3 27C41.4673 27 42.614 27.3073 43.6249 27.891C44.6358 28.4746 45.4753 29.3141 46.0589 30.325H48.6125C49.0534 30.325 49.4763 30.1498 49.7881 29.8381C50.0999 29.5263 50.275 29.1034 50.275 28.6625V21.5137C50.2744 21.1365 50.1454 20.7706 49.9093 20.4763L44.9883 14.3251C44.8328 14.1304 44.6355 13.9731 44.4111 13.8649C44.1866 13.7567 43.9407 13.7004 43.6915 13.7H40.3V27ZM10.375 30.325C9.49318 30.325 8.64745 30.6753 8.02389 31.2989C7.40034 31.9224 7.05002 32.7682 7.05002 33.65C7.05002 34.5318 7.40034 35.3776 8.02389 36.0011C8.64745 36.6247 9.49318 36.975 10.375 36.975C11.2569 36.975 12.1026 36.6247 12.7262 36.0011C13.3497 35.3776 13.7 34.5318 13.7 33.65C13.7 32.7682 13.3497 31.9224 12.7262 31.2989C12.1026 30.6753 11.2569 30.325 10.375 30.325ZM40.3 30.325C39.4182 30.325 38.5725 30.6753 37.9489 31.2989C37.3253 31.9224 36.975 32.7682 36.975 33.65C36.975 34.5318 37.3253 35.3776 37.9489 36.0011C38.5725 36.6247 39.4182 36.975 40.3 36.975C41.1819 36.975 42.0276 36.6247 42.6512 36.0011C43.2747 35.3776 43.625 34.5318 43.625 33.65C43.625 32.7682 43.2747 31.9224 42.6512 31.2989C42.0276 30.6753 41.1819 30.325 40.3 30.325Z" fill="#0AAD3B"/>
</svg>
