<svg width="24" height="24" viewBox="0 0 24 24" fill="none" xmlns="http://www.w3.org/2000/svg">
<path d="M12.0007 0.333313C8.83228 0.333313 8.43466 0.347167 7.19025 0.403799C5.94827 0.460674 5.10052 0.657306 4.35874 0.945813C3.59143 1.2438 2.94055 1.64241 2.2921 2.29113C1.64316 2.9396 1.24456 3.5905 0.945612 4.35758C0.656385 5.09963 0.459516 5.94765 0.403615 7.18918C0.347957 8.43363 0.333374 8.83151 0.333374 12C0.333374 15.1685 0.347471 15.5649 0.403858 16.8093C0.460975 18.0513 0.6576 18.8991 0.945856 19.6409C1.24408 20.4082 1.64267 21.0591 2.29137 21.7076C2.93958 22.3566 3.59046 22.7562 4.35728 23.0541C5.09955 23.3427 5.94754 23.5393 7.18928 23.5962C8.43368 23.6528 8.83107 23.6666 11.9992 23.6666C15.1678 23.6666 15.5642 23.6528 16.8086 23.5962C18.0506 23.5393 18.8993 23.3427 19.6416 23.0541C20.4087 22.7562 21.0586 22.3566 21.7068 21.7076C22.3557 21.0591 22.7543 20.4082 23.0533 19.6412C23.3401 18.8991 23.5369 18.0511 23.5953 16.8096C23.6512 15.5651 23.6658 15.1685 23.6658 12C23.6658 8.83151 23.6512 8.43387 23.5953 7.18942C23.5369 5.94741 23.3401 5.09963 23.0533 4.35783C22.7543 3.5905 22.3557 2.9396 21.7068 2.29113C21.0578 1.64217 20.4089 1.24356 19.6409 0.945813C18.8972 0.657306 18.0489 0.460674 16.8069 0.403799C15.5625 0.347167 15.1664 0.333313 11.997 0.333313H12.0007ZM10.9541 2.43574C11.2647 2.43526 11.6113 2.43574 12.0007 2.43574C15.1156 2.43574 15.4848 2.44692 16.7148 2.50283C17.8523 2.55484 18.4696 2.74491 18.8809 2.9046C19.4253 3.11606 19.8134 3.36883 20.2215 3.77717C20.6298 4.1855 20.8826 4.57439 21.0945 5.11883C21.2542 5.5296 21.4445 6.14696 21.4963 7.28446C21.5522 8.51432 21.5644 8.88376 21.5644 11.9973C21.5644 15.1108 21.5522 15.4803 21.4963 16.7102C21.4443 17.8477 21.2542 18.465 21.0945 18.8758C20.8831 19.4202 20.6298 19.8079 20.2215 20.216C19.8132 20.6243 19.4255 20.8771 18.8809 21.0886C18.4701 21.249 17.8523 21.4386 16.7148 21.4906C15.485 21.5465 15.1156 21.5586 12.0007 21.5586C8.88551 21.5586 8.51632 21.5465 7.2865 21.4906C6.14903 21.4381 5.53169 21.248 5.12021 21.0883C4.57578 20.8769 4.1869 20.6241 3.77858 20.2157C3.37026 19.8074 3.11749 19.4195 2.90555 18.8748C2.74587 18.464 2.55556 17.8467 2.50379 16.7092C2.44789 15.4793 2.43671 15.1099 2.43671 11.9944C2.43671 8.8789 2.44789 8.5114 2.50379 7.28154C2.55581 6.14404 2.74587 5.52668 2.90555 5.11543C3.117 4.57099 3.37026 4.1821 3.77858 3.77376C4.1869 3.36543 4.57578 3.11265 5.12021 2.90071C5.53145 2.74029 6.14903 2.55071 7.2865 2.49845C8.36271 2.44984 8.77978 2.43526 10.9541 2.43283V2.43574ZM18.228 4.3729C17.4551 4.3729 16.8281 4.99925 16.8281 5.77241C16.8281 6.54533 17.4551 7.17241 18.228 7.17241C19.0009 7.17241 19.628 6.54533 19.628 5.77241C19.628 4.99949 19.0009 4.37241 18.228 4.37241V4.3729ZM12.0007 6.00866C8.69204 6.00866 6.00952 8.69127 6.00952 12C6.00952 15.3087 8.69204 17.9901 12.0007 17.9901C15.3093 17.9901 17.9908 15.3087 17.9908 12C17.9908 8.69127 15.309 6.00866 12.0004 6.00866H12.0007ZM12.0007 8.11109C14.1482 8.11109 15.8894 9.8521 15.8894 12C15.8894 14.1476 14.1482 15.8889 12.0007 15.8889C9.85284 15.8889 8.11189 14.1476 8.11189 12C8.11189 9.8521 9.85284 8.11109 12.0007 8.11109V8.11109Z" fill="#121A15"/>
</svg>
