<svg width="32" height="32" viewBox="0 0 32 32" fill="none" xmlns="http://www.w3.org/2000/svg">
<mask id="mask0_101_901" style="mask-type:alpha" maskUnits="userSpaceOnUse" x="0" y="0" width="32" height="32">
<circle cx="16" cy="16" r="16" fill="#C4C4C4"/>
</mask>
<g mask="url(#mask0_101_901)">
<g clip-path="url(#clip0_101_901)">
<path fill-rule="evenodd" clip-rule="evenodd" d="M-8.02673 0H40.0233V32H-8.02673V0Z" fill="#BE0027"/>
<path fill-rule="evenodd" clip-rule="evenodd" d="M6.56704 16.3187C7.41704 15.2812 9.18579 16.2937 10.6295 15.55C8.91704 15.6437 7.98579 14.725 6.63579 14.8562C8.03579 13.9937 9.22954 15.1375 10.792 14.6812C8.72329 14.5062 8.81079 13.575 6.92329 13.4437C8.59829 12.7312 9.42329 14.1812 11.067 13.85C9.12954 13.4062 8.87954 12.2687 7.44204 12.025C9.54204 11.7125 9.40454 12.95 11.4608 13.1C9.37329 12.2062 9.91704 11.425 8.17329 10.7437C10.1295 10.7 9.99829 12.0562 11.9858 12.4062C10.2858 11.3312 10.492 10.35 9.09829 9.58125C10.7545 9.6125 10.9108 11.3062 12.6045 11.8312C11.0983 10.6375 11.492 9.625 10.192 8.55625C11.842 8.94375 11.5983 10.4062 13.317 11.3437C12.042 9.93125 12.5295 8.91875 11.4233 7.7625C13.0108 8.26875 12.4045 9.6625 14.0483 10.9875C13.1108 9.43125 13.692 8.4375 12.7608 7.13125C14.2358 7.8875 13.5233 9.3125 14.8858 10.725C14.242 9.13125 14.8858 8.14375 14.2295 6.73125C15.492 7.66875 14.742 9.1875 15.7608 10.6375C15.3858 8.6375 16.2483 8.3125 15.9795 6.5625C16.9358 7.7375 15.867 8.9125 16.6045 10.6437C16.5108 8.675 17.5608 8.21875 17.3795 6.64375C18.3233 8.05625 16.8483 9.2875 17.467 10.8C17.6233 8.9375 18.8483 8.45 18.867 7C19.617 8.33125 17.992 9.29375 18.2545 11.0625C18.7858 9.1125 20.092 8.875 20.2545 7.5625C20.6983 9.1 18.917 9.8125 19.0233 11.525C19.5545 9.79375 21.1858 9.5875 21.5233 8.3125C21.7295 9.9375 20.1233 10.2312 19.667 12.0312C20.5108 10.5625 21.992 10.4437 22.6545 9.28125C22.6045 10.8937 20.792 11.1062 20.2358 12.6125C21.2795 11.3312 22.592 11.55 23.6358 10.4187C23.5233 11.875 21.6795 11.7937 20.6983 13.3C21.8295 12.2562 23.5358 12.5687 24.4045 11.6687C24.3608 12.9562 22.0983 12.8562 21.0295 14.0125C22.342 13.2875 24.017 13.7125 24.9795 13.0437C24.8045 14.1687 22.417 13.9062 21.2733 14.7937C22.8483 14.3562 24.067 15.025 25.3358 14.5437C24.717 15.6375 22.5483 14.9437 21.3983 15.6562C22.7733 15.425 24.2233 16.2562 25.467 15.9875C25.0608 16.9375 22.6795 15.925 21.4045 16.5187C22.9295 16.5062 23.9233 17.4875 25.342 17.4187C24.5733 18.2812 22.4858 17.1 21.267 17.3C22.7545 17.6125 23.892 18.8375 25.017 18.9C24.0858 19.6062 22.3608 17.9937 20.9545 18.1937C22.4045 18.5812 23.617 20.225 24.442 20.2625C23.5483 20.875 21.7858 18.8562 20.5795 18.9312C22.0483 19.5937 22.717 21.275 23.6858 21.5125C22.492 21.8937 21.317 19.6875 20.0358 19.6062C21.5233 20.5437 21.6045 21.9812 22.7483 22.6187C21.542 22.9125 20.6858 20.4187 19.417 20.2062C20.6358 21.1 20.8233 23.0187 21.6295 23.6187C20.4045 23.6812 19.9608 21.075 18.7045 20.7C19.7795 21.6 19.5233 23.55 20.3608 24.3875C19.0858 24.1187 19.2483 21.85 17.917 21.0812C18.8733 22.2937 18.3858 24.0125 19.0108 24.9812C17.767 24.4812 18.3045 22.4437 17.1233 21.2937C17.767 22.5812 17.0733 24.0812 17.5858 25.325C16.4483 24.7687 17.2108 22.3625 16.342 21.4062C16.742 22.8937 16.0045 24.125 16.3045 25.4562C15.142 24.1125 16.4795 22.7562 15.4733 21.3875C15.7358 22.9562 14.6358 24.0562 14.8108 25.3687C13.892 24.2937 15.3108 22.575 14.592 21.2187C14.742 22.7625 13.3233 24.1187 13.4233 25.0937C12.6733 23.8437 14.2545 22.3687 13.8295 20.95C13.742 22.425 12.3045 23.225 12.0358 24.5687C11.5545 23.0875 13.2608 22.0187 13.1108 20.5625C12.6233 21.9437 11.2358 22.5 10.7483 23.8437C10.3483 22.3625 12.3733 21.5812 12.4233 20.0312C11.7983 21.4812 10.142 21.8062 9.59204 22.9187C9.38579 21.45 11.7045 20.7937 11.792 19.4C11.042 20.7375 9.22954 20.7937 8.60454 21.8562C8.51079 20.3937 10.9545 20.2125 11.3358 18.6812C10.592 19.8187 8.60454 19.675 7.77329 20.6C7.90454 19.2437 10.5483 19.1625 10.9733 17.9375C9.98579 18.8875 8.16079 18.5 7.12954 19.25C7.70454 17.9125 10.1858 18.1937 10.742 17.2312C9.64829 17.8 7.70454 17.2437 6.74204 17.8187C7.61704 16.5562 9.54204 17.3125 10.6358 16.4437C8.86079 16.7 7.79204 15.9937 6.56079 16.3187H6.56704Z" fill="#FFFF00"/>
<path fill-rule="evenodd" clip-rule="evenodd" d="M22.2233 16.0062C22.2233 17.6513 21.5697 19.2291 20.4064 20.3924C19.2431 21.5557 17.6653 22.2093 16.0202 22.2093C14.375 22.2093 12.7972 21.5557 11.6339 20.3924C10.4706 19.2291 9.81702 17.6513 9.81702 16.0062C9.81702 14.3618 10.4702 12.7848 11.633 11.6221C12.7957 10.4594 14.3727 9.80615 16.017 9.80615C17.6614 9.80615 19.2384 10.4594 20.4011 11.6221C21.5638 12.7848 22.217 14.3618 22.217 16.0062H22.2233Z" fill="#FFFF00"/>
<path fill-rule="evenodd" clip-rule="evenodd" d="M21.4232 16.0187C21.4232 17.4493 20.855 18.8212 19.8434 19.8327C18.8319 20.8442 17.46 21.4125 16.0295 21.4125C14.599 21.4125 13.2271 20.8442 12.2155 19.8327C11.204 18.8212 10.6357 17.4493 10.6357 16.0187C10.6357 14.5882 11.204 13.2163 12.2155 12.2048C13.2271 11.1933 14.599 10.625 16.0295 10.625C17.46 10.625 18.8319 11.1933 19.8434 12.2048C20.855 13.2163 21.4232 14.5882 21.4232 16.0187Z" fill="#BE0027"/>
<path fill-rule="evenodd" clip-rule="evenodd" d="M20.6733 16.0312C20.6733 17.2594 20.1853 18.4374 19.3168 19.306C18.4483 20.1745 17.2703 20.6624 16.042 20.6624C14.8137 20.6624 13.6358 20.1745 12.7672 19.306C11.8987 18.4374 11.4108 17.2594 11.4108 16.0312C11.4108 14.8029 11.8987 13.6249 12.7672 12.7564C13.6358 11.8878 14.8137 11.3999 16.042 11.3999C17.2703 11.3999 18.4483 11.8878 19.3168 12.7564C20.1853 13.6249 20.6733 14.8029 20.6733 16.0312Z" fill="#FFFF00"/>
<path fill-rule="evenodd" clip-rule="evenodd" d="M12.0983 12.9999C13.3796 12.9687 14.9733 13.0874 16.0296 13.9249C17.158 13.2207 18.4865 12.9066 19.8108 13.0312L20.4983 14.2874C19.43 14.1899 18.3545 14.3663 17.3733 14.7999C18.0746 15.3171 18.6384 15.9983 19.0154 16.7839C19.3924 17.5695 19.5711 18.4355 19.5358 19.3062C19.3671 19.5187 19.0983 19.7499 18.9296 19.9624C19.1796 18.1812 18.2421 16.1937 16.8733 15.1499C17.9858 16.7499 18.6421 18.1874 18.4608 20.1749L17.8358 20.5749C18.1233 18.8249 17.7108 16.7624 16.4171 15.5749C17.1671 16.6687 17.9046 18.6374 17.4421 20.6374C17.2421 20.6999 16.9296 20.8687 16.7296 20.9249C16.9746 20.1043 17.0411 19.2408 16.9247 18.3924C16.8083 17.544 16.5116 16.7304 16.0546 16.0062C15.1921 17.2437 14.9108 19.1312 15.3983 20.8812C15.1608 20.8187 14.9796 20.7437 14.7358 20.6874C14.3796 18.8124 14.8733 16.6874 15.7296 15.5812C14.8546 16.0874 14.0358 18.2499 14.2671 20.4562L13.6858 20.1874C13.4046 18.5437 14.1483 16.3999 15.2171 15.1624C14.0046 15.9249 13.0171 17.8062 13.1858 19.8249C12.9983 19.6624 12.8296 19.5812 12.6421 19.4124C12.4296 17.6499 13.4546 15.8749 14.6483 14.8124C13.6421 14.3562 12.7733 14.2687 11.5233 14.2874C11.7171 13.8812 11.8983 13.4062 12.0983 12.9937V12.9999Z" fill="#BE0027"/>
</g>
</g>
<defs>
<clipPath id="clip0_101_901">
<rect width="42.6667" height="32" fill="white" transform="translate(-5.33337)"/>
</clipPath>
</defs>
</svg>
