<svg width="196" height="72" viewBox="0 0 196 72" fill="none" xmlns="http://www.w3.org/2000/svg">
<path fill-rule="evenodd" clip-rule="evenodd" d="M44.0735 15.9265C52.5088 24.3619 52.5088 38.0382 44.0735 46.4735L28.8 61.747L13.5264 46.4735C5.09112 38.0382 5.09112 24.3619 13.5264 15.9265C21.9618 7.49121 35.6381 7.49121 44.0735 15.9265ZM41.7369 18.2623C48.9071 25.4322 48.9071 37.0573 41.7369 44.2273C34.5669 51.3973 22.942 51.3973 15.772 44.2273C8.60196 37.0573 8.60196 25.4322 15.772 18.2623C22.942 11.0923 34.5669 11.0923 41.7369 18.2623Z" fill="#0AAD3B"/>
<path d="M36.1809 36.1393H23.0919C22.1123 36.1393 21.2751 35.4335 21.1095 34.468L19.2797 23.7964H17.539C17.3344 23.7964 17.1382 23.7152 16.9934 23.5706C16.8489 23.4258 16.7676 23.2296 16.7676 23.025C16.7676 22.8204 16.8489 22.6242 16.9934 22.4795C17.1382 22.3349 17.3344 22.2536 17.539 22.2536H19.2796C19.641 22.2534 19.991 22.3801 20.2683 22.6117C20.5458 22.8433 20.7331 23.165 20.7976 23.5204L21.2686 26.1107H37.4433C37.6692 26.1107 37.8923 26.1604 38.0972 26.2562C38.3018 26.3519 38.483 26.4916 38.6278 26.665C38.7726 26.8385 38.8775 27.0417 38.935 27.2602C38.9928 27.4788 39.0017 27.7073 38.9613 27.9295L37.699 34.8725C37.6344 35.228 37.4472 35.5497 37.1697 35.7812C36.8922 36.0129 36.5422 36.1395 36.1809 36.1393Z" fill="#0AAD3B"/>
<path d="M34.5095 42.3102C35.7877 42.3102 36.8239 41.2741 36.8239 39.996C36.8239 38.7178 35.7877 37.6816 34.5095 37.6816C33.2314 37.6816 32.1953 38.7178 32.1953 39.996C32.1953 41.2741 33.2314 42.3102 34.5095 42.3102Z" fill="#0AAD3B"/>
<path d="M25.2529 42.3102C26.5311 42.3102 27.5673 41.2741 27.5673 39.996C27.5673 38.7178 26.5311 37.6816 25.2529 37.6816C23.9748 37.6816 22.9387 38.7178 22.9387 39.996C22.9387 41.2741 23.9748 42.3102 25.2529 42.3102Z" fill="#0AAD3B"/>
<path d="M64.1331 16.7451H70.9814V42.5832C70.9814 44.7168 71.6224 46.408 72.9042 47.657C74.2036 48.8887 75.9331 49.5044 78.0931 49.5044C80.4637 49.5044 82.3425 48.9233 83.7297 47.7611C85.2046 46.5295 85.9423 44.7601 85.9423 42.4531V16.7451H92.7904V42.9733C92.7904 47.0846 91.3505 50.2504 88.4709 52.4708C85.8544 54.5002 82.4126 55.5152 78.1457 55.5152C73.826 55.5152 70.4545 54.5002 68.0313 52.4708C65.4326 50.3024 64.1331 47.1279 64.1331 42.9473V16.7451ZM70.1385 6.20691C71.1744 6.20691 72.0526 6.57119 72.7725 7.29976C73.5099 8.02832 73.8788 8.90433 73.8788 9.92779C73.8788 10.9513 73.5099 11.8273 72.7725 12.5558C72.0526 13.267 71.1744 13.6227 70.1385 13.6227C69.1026 13.6227 68.2157 13.267 67.4782 12.5558C66.7408 11.8273 66.3719 10.9513 66.3719 9.92779C66.3719 8.90433 66.7408 8.02832 67.4782 7.29976C68.2157 6.57119 69.1026 6.20691 70.1385 6.20691ZM86.4689 6.20691C87.505 6.20691 88.383 6.57119 89.1029 7.29976C89.8403 8.02832 90.2092 8.90433 90.2092 9.92779C90.2092 10.9513 89.8403 11.8273 89.1029 12.5558C88.383 13.267 87.505 13.6227 86.4689 13.6227C85.433 13.6227 84.5463 13.267 83.8086 12.5558C83.0711 11.8273 82.7023 10.9513 82.7023 9.92779C82.7023 8.90433 83.0711 8.02832 83.8086 7.29976C84.5463 6.57119 85.433 6.20691 86.4689 6.20691ZM113.322 59.34C112.496 61.4911 110.749 63.1478 108.08 64.3099C105.815 65.2986 103.365 65.7931 100.731 65.7931V60.0425C105.806 60.0425 108.343 58.7849 108.343 56.2697C108.343 54.6044 107.641 52.0545 106.236 48.6198L97.4124 26.997H104.234L111.926 46.2519L118.853 26.997H125.675L113.322 59.34ZM128.084 62.0202L132.246 56.9462C134.546 59.0278 137.11 60.0687 139.937 60.0687C141.447 60.0687 142.773 59.8865 143.914 59.5223C145.618 58.9672 146.469 58.1084 146.469 56.9462C146.469 55.2982 145.108 54.4743 142.387 54.4743C141.649 54.4743 140.552 54.5611 139.094 54.7345C137.637 54.9079 136.539 54.9947 135.802 54.9947C131.271 54.9947 129.006 53.39 129.006 50.1809C129.006 49.2268 129.41 48.2903 130.218 47.3708C130.938 46.5381 131.789 45.9224 132.773 45.5234C129.559 43.4591 127.953 40.5362 127.953 36.7547C127.953 33.6668 129.103 31.1429 131.403 29.1827C133.58 27.344 136.258 26.4246 139.437 26.4246C141.965 26.4246 144.081 26.8929 145.784 27.8297L148.366 24.8634L152.922 28.9485L149.788 31.2124C150.877 32.8428 151.421 34.7683 151.421 36.9887C151.421 40.0939 150.473 42.6178 148.576 44.5607C146.697 46.4862 144.195 47.449 141.069 47.449C140.402 47.449 139.77 47.4054 139.173 47.3188L138.093 47.1625C137.742 47.1625 137.215 47.3708 136.513 47.7871C135.81 48.2034 135.459 48.5678 135.459 48.88C135.459 49.5739 136.065 49.9207 137.277 49.9207C137.961 49.9207 138.962 49.7906 140.279 49.5306C141.614 49.2703 142.623 49.1402 143.308 49.1402C149.718 49.1402 152.922 51.6814 152.922 56.7641C152.922 59.7999 151.43 62.1415 148.445 63.7894C146.021 65.1252 143.142 65.7931 139.805 65.7931C135.486 65.7931 131.579 64.5355 128.084 62.0202ZM134.669 36.7807C134.669 38.3938 135.108 39.6949 135.986 40.6837C136.899 41.7244 138.164 42.2448 139.779 42.2448C143.027 42.2448 144.652 40.4234 144.652 36.7807C144.652 35.3407 144.195 34.144 143.282 33.1899C142.387 32.2358 141.219 31.7588 139.779 31.7588C138.269 31.7588 137.04 32.2271 136.091 33.1639C135.143 34.0831 134.669 35.2888 134.669 36.7807ZM155.964 40.8657C155.964 36.6679 157.149 33.2505 159.52 30.6138C161.996 27.8557 165.332 26.4766 169.529 26.4766C173.919 26.4766 177.299 27.8123 179.669 30.4836C181.935 33.0164 183.067 36.4771 183.067 40.8657C183.067 45.2197 181.926 48.6893 179.643 51.2738C177.237 54.0146 173.866 55.3851 169.529 55.3851C165.156 55.3851 161.767 54.0233 159.362 51.2998C157.097 48.7152 155.964 45.2372 155.964 40.8657ZM162.812 40.8657C162.812 47.0064 165.051 50.077 169.529 50.077C171.917 50.077 173.682 49.0794 174.823 47.0846C175.754 45.4713 176.219 43.3983 176.219 40.8657C176.219 34.8118 173.989 31.7848 169.529 31.7848C167.176 31.7848 165.411 32.7649 164.234 34.725C163.286 36.3381 162.812 38.3851 162.812 40.8657ZM161.838 15.8344C162.874 15.8344 163.752 16.1987 164.472 16.9272C165.209 17.6558 165.578 18.5318 165.578 19.5553C165.578 20.5787 165.209 21.4547 164.472 22.1833C163.752 22.8945 162.874 23.2501 161.838 23.2501C160.802 23.2501 159.915 22.8945 159.177 22.1833C158.44 21.4547 158.071 20.5787 158.071 19.5553C158.071 18.5318 158.44 17.6558 159.177 16.9272C159.915 16.1987 160.802 15.8344 161.838 15.8344ZM178.168 15.8344C179.204 15.8344 180.082 16.1987 180.802 16.9272C181.54 17.6558 181.908 18.5318 181.908 19.5553C181.908 20.5787 181.54 21.4547 180.802 22.1833C180.082 22.8945 179.204 23.2501 178.168 23.2501C177.132 23.2501 176.245 22.8945 175.508 22.1833C174.77 21.4547 174.402 20.5787 174.402 19.5553C174.402 18.5318 174.77 17.6558 175.508 16.9272C176.245 16.1987 177.132 15.8344 178.168 15.8344Z" fill="#0AAD3B"/>
</svg>
