<svg width="20" height="22" viewBox="0 0 20 22" fill="none" xmlns="http://www.w3.org/2000/svg">
<path d="M3.24276 2.15479L4.35953 1.66648C5.62511 1.1131 7.10481 1.58438 7.81724 2.76775L8.95148 4.65174C9.55873 5.6604 9.45653 6.94372 8.69728 7.84355L7.37966 9.40513C7.34115 9.45078 7.32025 9.50869 7.32074 9.56841C7.32402 9.96801 7.68349 10.7038 8.42734 11.6966C8.96827 12.4185 9.43889 12.9138 9.82062 13.1784C10.0866 13.3627 10.2244 13.3929 10.2788 13.3694L12.2015 12.5196C13.2781 12.0438 14.5381 12.3059 15.3356 13.1715L16.8188 14.7813C17.7522 15.7945 17.792 17.3421 16.9117 18.4018L16.1317 19.3408C15.29 20.3541 13.9783 20.8515 12.6764 20.651C9.85037 20.216 7.12172 18.2026 4.46911 14.6624C1.81281 11.1173 0.647416 7.92896 1.02849 5.09155C1.20288 3.79303 2.04232 2.67969 3.24276 2.15479ZM3.8437 3.52915C3.12344 3.84409 2.61978 4.5121 2.51514 5.29121C2.1946 7.67792 3.22754 10.5038 5.66953 13.763C8.10826 17.0177 10.5271 18.8025 12.9047 19.1685C13.6858 19.2888 14.4728 18.9904 14.9778 18.3824L15.7578 17.4434C16.158 16.9616 16.1399 16.2582 15.7156 15.7977L14.2325 14.1879C13.87 13.7944 13.2972 13.6753 12.8079 13.8916L10.8803 14.7435C9.76048 15.229 8.59419 14.4208 7.22693 12.596C6.30553 11.3663 5.82742 10.3876 5.82079 9.58073C5.81736 9.16272 5.96366 8.7573 6.23323 8.43782L7.55085 6.87623C7.89597 6.46722 7.94242 5.88389 7.6664 5.42541L6.53216 3.54142C6.20833 3.00352 5.53574 2.7893 4.96047 3.04084L3.8437 3.52915Z" fill="white"/>
<path d="M12.4802 1.46536C12.6289 1.18403 12.9775 1.0765 13.2588 1.22518C14.7517 2.01416 16.0195 3.17749 16.944 4.63427C17.8715 6.09595 18.3845 7.74462 18.4599 9.43721C18.4741 9.75509 18.2279 10.0243 17.91 10.0384C17.5922 10.0526 17.323 9.80641 17.3088 9.48853C17.2422 7.99564 16.79 6.54231 15.971 5.25166C15.1548 3.96533 14.0372 2.93983 12.7204 2.24394C12.4391 2.09526 12.3315 1.74668 12.4802 1.46536ZM11.0539 4.18628C11.2032 3.90527 11.552 3.79849 11.833 3.94777C12.8522 4.48919 13.7178 5.28525 14.3495 6.28064C14.9826 7.27831 15.3343 8.40338 15.389 9.55878C15.404 9.87662 15.1586 10.1465 14.8407 10.1615C14.5229 10.1765 14.253 9.93106 14.238 9.61322C14.1927 8.65645 13.9017 7.72558 13.3765 6.89803C12.8526 6.07237 12.1364 5.41372 11.2924 4.96538C11.0114 4.8161 10.9046 4.46728 11.0539 4.18628Z" fill="white"/>
</svg>
