<svg width="44" height="39" viewBox="0 0 44 39" fill="none" xmlns="http://www.w3.org/2000/svg">
<path d="M44 13.25C44 12.6977 43.5523 12.25 43 12.25H33.5V5.25C33.5 2.275 31.225 0 28.25 0H17.75C14.775 0 12.5 2.275 12.5 5.25V12.25H2C0.95 12.25 0.25 12.95 0.25 14V14.35L3.575 35.525C3.75 37.275 5.325 38.5 7.075 38.5H20.25C20.8023 38.5 21.25 38.0523 21.25 37.5V36C21.25 35.4477 20.8023 35 20.25 35H7.93233C7.43902 35 7.0194 34.6403 6.94406 34.1527L4.27815 16.9027C4.1845 16.2968 4.65326 15.75 5.26642 15.75H43C43.5523 15.75 44 15.3023 44 14.75V13.25ZM16 5.25C16 4.2 16.7 3.5 17.75 3.5H28.25C29.3 3.5 30 4.2 30 5.25V12.25H16V5.25Z" fill="#0AAD3B"/>
</svg>
