<svg width="160" height="160" viewBox="0 0 160 160" fill="none" xmlns="http://www.w3.org/2000/svg">
<rect width="160" height="160" rx="16" fill="white"/>
<path d="M19.122 16H16V19.122H19.122V16Z" fill="black"/>
<path d="M22.2439 16H19.122V19.122H22.2439V16Z" fill="black"/>
<path d="M25.3659 16H22.2439V19.122H25.3659V16Z" fill="black"/>
<path d="M28.4878 16H25.3659V19.122H28.4878V16Z" fill="black"/>
<path d="M31.6098 16H28.4878V19.122H31.6098V16Z" fill="black"/>
<path d="M34.7317 16H31.6098V19.122H34.7317V16Z" fill="black"/>
<path d="M37.8537 16H34.7317V19.122H37.8537V16Z" fill="black"/>
<path d="M44.0976 16H40.9756V19.122H44.0976V16Z" fill="black"/>
<path d="M47.2195 16H44.0976V19.122H47.2195V16Z" fill="black"/>
<path d="M59.7073 16H56.5854V19.122H59.7073V16Z" fill="black"/>
<path d="M62.8293 16H59.7073V19.122H62.8293V16Z" fill="black"/>
<path d="M69.0732 16H65.9512V19.122H69.0732V16Z" fill="black"/>
<path d="M75.3171 16H72.1951V19.122H75.3171V16Z" fill="black"/>
<path d="M78.439 16H75.3171V19.122H78.439V16Z" fill="black"/>
<path d="M81.561 16H78.439V19.122H81.561V16Z" fill="black"/>
<path d="M84.6829 16H81.561V19.122H84.6829V16Z" fill="black"/>
<path d="M87.8049 16H84.6829V19.122H87.8049V16Z" fill="black"/>
<path d="M90.9268 16H87.8049V19.122H90.9268V16Z" fill="black"/>
<path d="M94.0488 16H90.9268V19.122H94.0488V16Z" fill="black"/>
<path d="M103.415 16H100.293V19.122H103.415V16Z" fill="black"/>
<path d="M112.78 16H109.659V19.122H112.78V16Z" fill="black"/>
<path d="M119.024 16H115.902V19.122H119.024V16Z" fill="black"/>
<path d="M125.268 16H122.146V19.122H125.268V16Z" fill="black"/>
<path d="M128.39 16H125.268V19.122H128.39V16Z" fill="black"/>
<path d="M131.512 16H128.39V19.122H131.512V16Z" fill="black"/>
<path d="M134.634 16H131.512V19.122H134.634V16Z" fill="black"/>
<path d="M137.756 16H134.634V19.122H137.756V16Z" fill="black"/>
<path d="M140.878 16H137.756V19.122H140.878V16Z" fill="black"/>
<path d="M144 16H140.878V19.122H144V16Z" fill="black"/>
<path d="M19.122 19.122H16V22.2439H19.122V19.122Z" fill="black"/>
<path d="M37.8537 19.122H34.7317V22.2439H37.8537V19.122Z" fill="black"/>
<path d="M50.3415 19.122H47.2195V22.2439H50.3415V19.122Z" fill="black"/>
<path d="M56.5854 19.122H53.4634V22.2439H56.5854V19.122Z" fill="black"/>
<path d="M59.7073 19.122H56.5854V22.2439H59.7073V19.122Z" fill="black"/>
<path d="M75.3171 19.122H72.1951V22.2439H75.3171V19.122Z" fill="black"/>
<path d="M87.8049 19.122H84.6829V22.2439H87.8049V19.122Z" fill="black"/>
<path d="M90.9268 19.122H87.8049V22.2439H90.9268V19.122Z" fill="black"/>
<path d="M94.0488 19.122H90.9268V22.2439H94.0488V19.122Z" fill="black"/>
<path d="M100.293 19.122H97.1707V22.2439H100.293V19.122Z" fill="black"/>
<path d="M103.415 19.122H100.293V22.2439H103.415V19.122Z" fill="black"/>
<path d="M109.659 19.122H106.537V22.2439H109.659V19.122Z" fill="black"/>
<path d="M112.78 19.122H109.659V22.2439H112.78V19.122Z" fill="black"/>
<path d="M119.024 19.122H115.902V22.2439H119.024V19.122Z" fill="black"/>
<path d="M125.268 19.122H122.146V22.2439H125.268V19.122Z" fill="black"/>
<path d="M144 19.122H140.878V22.2439H144V19.122Z" fill="black"/>
<path d="M19.122 22.2439H16V25.3659H19.122V22.2439Z" fill="black"/>
<path d="M25.3659 22.2439H22.2439V25.3659H25.3659V22.2439Z" fill="black"/>
<path d="M28.4878 22.2439H25.3659V25.3659H28.4878V22.2439Z" fill="black"/>
<path d="M31.6098 22.2439H28.4878V25.3659H31.6098V22.2439Z" fill="black"/>
<path d="M37.8537 22.2439H34.7317V25.3659H37.8537V22.2439Z" fill="black"/>
<path d="M44.0976 22.2439H40.9756V25.3659H44.0976V22.2439Z" fill="black"/>
<path d="M47.2195 22.2439H44.0976V25.3659H47.2195V22.2439Z" fill="black"/>
<path d="M50.3415 22.2439H47.2195V25.3659H50.3415V22.2439Z" fill="black"/>
<path d="M59.7073 22.2439H56.5854V25.3659H59.7073V22.2439Z" fill="black"/>
<path d="M62.8293 22.2439H59.7073V25.3659H62.8293V22.2439Z" fill="black"/>
<path d="M78.439 22.2439H75.3171V25.3659H78.439V22.2439Z" fill="black"/>
<path d="M81.561 22.2439H78.439V25.3659H81.561V22.2439Z" fill="black"/>
<path d="M87.8049 22.2439H84.6829V25.3659H87.8049V22.2439Z" fill="black"/>
<path d="M90.9268 22.2439H87.8049V25.3659H90.9268V22.2439Z" fill="black"/>
<path d="M109.659 22.2439H106.537V25.3659H109.659V22.2439Z" fill="black"/>
<path d="M119.024 22.2439H115.902V25.3659H119.024V22.2439Z" fill="black"/>
<path d="M125.268 22.2439H122.146V25.3659H125.268V22.2439Z" fill="black"/>
<path d="M131.512 22.2439H128.39V25.3659H131.512V22.2439Z" fill="black"/>
<path d="M134.634 22.2439H131.512V25.3659H134.634V22.2439Z" fill="black"/>
<path d="M137.756 22.2439H134.634V25.3659H137.756V22.2439Z" fill="black"/>
<path d="M144 22.2439H140.878V25.3659H144V22.2439Z" fill="black"/>
<path d="M19.122 25.3659H16V28.4878H19.122V25.3659Z" fill="black"/>
<path d="M25.3659 25.3659H22.2439V28.4878H25.3659V25.3659Z" fill="black"/>
<path d="M28.4878 25.3659H25.3659V28.4878H28.4878V25.3659Z" fill="black"/>
<path d="M31.6098 25.3659H28.4878V28.4878H31.6098V25.3659Z" fill="black"/>
<path d="M37.8537 25.3659H34.7317V28.4878H37.8537V25.3659Z" fill="black"/>
<path d="M50.3415 25.3659H47.2195V28.4878H50.3415V25.3659Z" fill="black"/>
<path d="M59.7073 25.3659H56.5854V28.4878H59.7073V25.3659Z" fill="black"/>
<path d="M69.0732 25.3659H65.9512V28.4878H69.0732V25.3659Z" fill="black"/>
<path d="M72.1951 25.3659H69.0732V28.4878H72.1951V25.3659Z" fill="black"/>
<path d="M75.3171 25.3659H72.1951V28.4878H75.3171V25.3659Z" fill="black"/>
<path d="M78.439 25.3659H75.3171V28.4878H78.439V25.3659Z" fill="black"/>
<path d="M84.6829 25.3659H81.561V28.4878H84.6829V25.3659Z" fill="black"/>
<path d="M87.8049 25.3659H84.6829V28.4878H87.8049V25.3659Z" fill="black"/>
<path d="M90.9268 25.3659H87.8049V28.4878H90.9268V25.3659Z" fill="black"/>
<path d="M94.0488 25.3659H90.9268V28.4878H94.0488V25.3659Z" fill="black"/>
<path d="M97.1707 25.3659H94.0488V28.4878H97.1707V25.3659Z" fill="black"/>
<path d="M100.293 25.3659H97.1707V28.4878H100.293V25.3659Z" fill="black"/>
<path d="M112.78 25.3659H109.659V28.4878H112.78V25.3659Z" fill="black"/>
<path d="M125.268 25.3659H122.146V28.4878H125.268V25.3659Z" fill="black"/>
<path d="M131.512 25.3659H128.39V28.4878H131.512V25.3659Z" fill="black"/>
<path d="M134.634 25.3659H131.512V28.4878H134.634V25.3659Z" fill="black"/>
<path d="M137.756 25.3659H134.634V28.4878H137.756V25.3659Z" fill="black"/>
<path d="M144 25.3659H140.878V28.4878H144V25.3659Z" fill="black"/>
<path d="M19.122 28.4878H16V31.6098H19.122V28.4878Z" fill="black"/>
<path d="M25.3659 28.4878H22.2439V31.6098H25.3659V28.4878Z" fill="black"/>
<path d="M28.4878 28.4878H25.3659V31.6098H28.4878V28.4878Z" fill="black"/>
<path d="M31.6098 28.4878H28.4878V31.6098H31.6098V28.4878Z" fill="black"/>
<path d="M37.8537 28.4878H34.7317V31.6098H37.8537V28.4878Z" fill="black"/>
<path d="M47.2195 28.4878L44.0976 28.4878V31.6098H47.2195V28.4878Z" fill="black"/>
<path d="M50.3415 28.4878H47.2195V31.6098H50.3415V28.4878Z" fill="black"/>
<path d="M59.7073 28.4878H56.5854V31.6098H59.7073V28.4878Z" fill="black"/>
<path d="M62.8293 28.4878L59.7073 28.4878V31.6098H62.8293V28.4878Z" fill="black"/>
<path d="M78.439 28.4878H75.3171V31.6098H78.439V28.4878Z" fill="black"/>
<path d="M94.0488 28.4878H90.9268V31.6098H94.0488V28.4878Z" fill="black"/>
<path d="M97.1707 28.4878H94.0488V31.6098H97.1707V28.4878Z" fill="black"/>
<path d="M100.293 28.4878H97.1707V31.6098H100.293V28.4878Z" fill="black"/>
<path d="M109.659 28.4878L106.537 28.4878V31.6098H109.659V28.4878Z" fill="black"/>
<path d="M115.902 28.4878L112.78 28.4878V31.6098H115.902V28.4878Z" fill="black"/>
<path d="M125.268 28.4878H122.146V31.6098H125.268V28.4878Z" fill="black"/>
<path d="M131.512 28.4878H128.39V31.6098H131.512V28.4878Z" fill="black"/>
<path d="M134.634 28.4878H131.512V31.6098H134.634V28.4878Z" fill="black"/>
<path d="M137.756 28.4878H134.634V31.6098H137.756V28.4878Z" fill="black"/>
<path d="M144 28.4878H140.878V31.6098H144V28.4878Z" fill="black"/>
<path d="M19.122 31.6098H16V34.7317H19.122V31.6098Z" fill="black"/>
<path d="M37.8537 31.6098H34.7317V34.7317H37.8537V31.6098Z" fill="black"/>
<path d="M56.5854 31.6098H53.4634V34.7317H56.5854V31.6098Z" fill="black"/>
<path d="M72.1951 31.6098H69.0732V34.7317H72.1951V31.6098Z" fill="black"/>
<path d="M78.439 31.6098H75.3171V34.7317H78.439V31.6098Z" fill="black"/>
<path d="M90.9268 31.6098H87.8049V34.7317H90.9268V31.6098Z" fill="black"/>
<path d="M94.0488 31.6098H90.9268V34.7317H94.0488V31.6098Z" fill="black"/>
<path d="M97.1707 31.6098H94.0488V34.7317H97.1707V31.6098Z" fill="black"/>
<path d="M100.293 31.6098H97.1707V34.7317H100.293V31.6098Z" fill="black"/>
<path d="M106.537 31.6098H103.415V34.7317H106.537V31.6098Z" fill="black"/>
<path d="M109.659 31.6098H106.537V34.7317H109.659V31.6098Z" fill="black"/>
<path d="M119.024 31.6098H115.902V34.7317H119.024V31.6098Z" fill="black"/>
<path d="M125.268 31.6098H122.146V34.7317H125.268V31.6098Z" fill="black"/>
<path d="M144 31.6098H140.878V34.7317H144V31.6098Z" fill="black"/>
<path d="M19.122 34.7317H16V37.8537H19.122V34.7317Z" fill="black"/>
<path d="M22.2439 34.7317H19.122V37.8537H22.2439V34.7317Z" fill="black"/>
<path d="M25.3659 34.7317H22.2439V37.8537H25.3659V34.7317Z" fill="black"/>
<path d="M28.4878 34.7317H25.3659V37.8537H28.4878V34.7317Z" fill="black"/>
<path d="M31.6098 34.7317H28.4878V37.8537H31.6098V34.7317Z" fill="black"/>
<path d="M34.7317 34.7317H31.6098V37.8537H34.7317V34.7317Z" fill="black"/>
<path d="M37.8537 34.7317H34.7317V37.8537H37.8537V34.7317Z" fill="black"/>
<path d="M44.0976 34.7317H40.9756V37.8537H44.0976V34.7317Z" fill="black"/>
<path d="M50.3415 34.7317H47.2195V37.8537H50.3415V34.7317Z" fill="black"/>
<path d="M56.5854 34.7317H53.4634V37.8537H56.5854V34.7317Z" fill="black"/>
<path d="M62.8293 34.7317H59.7073V37.8537H62.8293V34.7317Z" fill="black"/>
<path d="M69.0732 34.7317H65.9512V37.8537H69.0732V34.7317Z" fill="black"/>
<path d="M75.3171 34.7317H72.1951V37.8537H75.3171V34.7317Z" fill="black"/>
<path d="M81.561 34.7317H78.439V37.8537H81.561V34.7317Z" fill="black"/>
<path d="M87.8049 34.7317H84.6829V37.8537H87.8049V34.7317Z" fill="black"/>
<path d="M94.0488 34.7317H90.9268V37.8537H94.0488V34.7317Z" fill="black"/>
<path d="M100.293 34.7317H97.1707V37.8537H100.293V34.7317Z" fill="black"/>
<path d="M106.537 34.7317H103.415V37.8537H106.537V34.7317Z" fill="black"/>
<path d="M112.78 34.7317H109.659V37.8537H112.78V34.7317Z" fill="black"/>
<path d="M119.024 34.7317H115.902V37.8537H119.024V34.7317Z" fill="black"/>
<path d="M125.268 34.7317H122.146V37.8537H125.268V34.7317Z" fill="black"/>
<path d="M128.39 34.7317H125.268V37.8537H128.39V34.7317Z" fill="black"/>
<path d="M131.512 34.7317H128.39V37.8537H131.512V34.7317Z" fill="black"/>
<path d="M134.634 34.7317H131.512V37.8537H134.634V34.7317Z" fill="black"/>
<path d="M137.756 34.7317H134.634V37.8537H137.756V34.7317Z" fill="black"/>
<path d="M140.878 34.7317H137.756V37.8537H140.878V34.7317Z" fill="black"/>
<path d="M144 34.7317H140.878V37.8537H144V34.7317Z" fill="black"/>
<path d="M44.0976 37.8537H40.9756V40.9756H44.0976V37.8537Z" fill="black"/>
<path d="M47.2195 37.8537H44.0976V40.9756H47.2195V37.8537Z" fill="black"/>
<path d="M59.7073 37.8537H56.5854V40.9756H59.7073V37.8537Z" fill="black"/>
<path d="M69.0732 37.8537H65.9512V40.9756H69.0732V37.8537Z" fill="black"/>
<path d="M75.3171 37.8537H72.1951V40.9756H75.3171V37.8537Z" fill="black"/>
<path d="M84.6829 37.8537H81.561V40.9756H84.6829V37.8537Z" fill="black"/>
<path d="M87.8049 37.8537H84.6829V40.9756H87.8049V37.8537Z" fill="black"/>
<path d="M90.9268 37.8537H87.8049V40.9756H90.9268V37.8537Z" fill="black"/>
<path d="M97.1707 37.8537H94.0488V40.9756H97.1707V37.8537Z" fill="black"/>
<path d="M103.415 37.8537H100.293V40.9756H103.415V37.8537Z" fill="black"/>
<path d="M106.537 37.8537H103.415V40.9756H106.537V37.8537Z" fill="black"/>
<path d="M112.78 37.8537H109.659V40.9756H112.78V37.8537Z" fill="black"/>
<path d="M119.024 37.8537H115.902V40.9756H119.024V37.8537Z" fill="black"/>
<path d="M19.122 40.9756H16V44.0976H19.122V40.9756Z" fill="black"/>
<path d="M25.3659 40.9756H22.2439V44.0976H25.3659V40.9756Z" fill="black"/>
<path d="M34.7317 40.9756H31.6098V44.0976H34.7317V40.9756Z" fill="black"/>
<path d="M37.8537 40.9756H34.7317V44.0976H37.8537V40.9756Z" fill="black"/>
<path d="M50.3415 40.9756H47.2195V44.0976H50.3415V40.9756Z" fill="black"/>
<path d="M75.3171 40.9756H72.1951V44.0976H75.3171V40.9756Z" fill="black"/>
<path d="M84.6829 40.9756H81.561V44.0976H84.6829V40.9756Z" fill="black"/>
<path d="M100.293 40.9756H97.1707V44.0976H100.293V40.9756Z" fill="black"/>
<path d="M115.902 40.9756H112.78V44.0976H115.902V40.9756Z" fill="black"/>
<path d="M122.146 40.9756H119.024V44.0976H122.146V40.9756Z" fill="black"/>
<path d="M125.268 40.9756H122.146V44.0976H125.268V40.9756Z" fill="black"/>
<path d="M137.756 40.9756H134.634V44.0976H137.756V40.9756Z" fill="black"/>
<path d="M144 40.9756H140.878V44.0976H144V40.9756Z" fill="black"/>
<path d="M25.3659 44.0976H22.2439V47.2195H25.3659V44.0976Z" fill="black"/>
<path d="M34.7317 44.0976H31.6098V47.2195H34.7317V44.0976Z" fill="black"/>
<path d="M40.9756 44.0976H37.8537V47.2195H40.9756V44.0976Z" fill="black"/>
<path d="M44.0976 44.0976H40.9756V47.2195H44.0976V44.0976Z" fill="black"/>
<path d="M50.3415 44.0976H47.2195V47.2195H50.3415V44.0976Z" fill="black"/>
<path d="M53.4634 44.0976H50.3415V47.2195H53.4634V44.0976Z" fill="black"/>
<path d="M56.5854 44.0976H53.4634V47.2195H56.5854V44.0976Z" fill="black"/>
<path d="M59.7073 44.0976H56.5854V47.2195H59.7073V44.0976Z" fill="black"/>
<path d="M65.9512 44.0976H62.8293V47.2195H65.9512V44.0976Z" fill="black"/>
<path d="M81.561 44.0976H78.439V47.2195H81.561V44.0976Z" fill="black"/>
<path d="M94.0488 44.0976H90.9268V47.2195H94.0488V44.0976Z" fill="black"/>
<path d="M100.293 44.0976H97.1707V47.2195H100.293V44.0976Z" fill="black"/>
<path d="M106.537 44.0976H103.415V47.2195H106.537V44.0976Z" fill="black"/>
<path d="M109.659 44.0976H106.537V47.2195H109.659V44.0976Z" fill="black"/>
<path d="M112.78 44.0976H109.659V47.2195H112.78V44.0976Z" fill="black"/>
<path d="M122.146 44.0976H119.024V47.2195H122.146V44.0976Z" fill="black"/>
<path d="M128.39 44.0976H125.268V47.2195H128.39V44.0976Z" fill="black"/>
<path d="M131.512 44.0976H128.39V47.2195H131.512V44.0976Z" fill="black"/>
<path d="M137.756 44.0976H134.634V47.2195H137.756V44.0976Z" fill="black"/>
<path d="M140.878 44.0976H137.756V47.2195H140.878V44.0976Z" fill="black"/>
<path d="M144 44.0976H140.878V47.2195H144V44.0976Z" fill="black"/>
<path d="M22.2439 47.2195H19.122V50.3415H22.2439V47.2195Z" fill="black"/>
<path d="M28.4878 47.2195H25.3659V50.3415H28.4878V47.2195Z" fill="black"/>
<path d="M34.7317 47.2195H31.6098V50.3415H34.7317V47.2195Z" fill="black"/>
<path d="M37.8537 47.2195H34.7317V50.3415H37.8537V47.2195Z" fill="black"/>
<path d="M44.0976 47.2195H40.9756V50.3415H44.0976V47.2195Z" fill="black"/>
<path d="M53.4634 47.2195H50.3415V50.3415H53.4634V47.2195Z" fill="black"/>
<path d="M56.5854 47.2195H53.4634V50.3415H56.5854V47.2195Z" fill="black"/>
<path d="M59.7073 47.2195H56.5854V50.3415H59.7073V47.2195Z" fill="black"/>
<path d="M65.9512 47.2195H62.8293V50.3415H65.9512V47.2195Z" fill="black"/>
<path d="M75.3171 47.2195H72.1951V50.3415H75.3171V47.2195Z" fill="black"/>
<path d="M81.561 47.2195H78.439V50.3415H81.561V47.2195Z" fill="black"/>
<path d="M84.6829 47.2195H81.561V50.3415H84.6829V47.2195Z" fill="black"/>
<path d="M87.8049 47.2195H84.6829V50.3415H87.8049V47.2195Z" fill="black"/>
<path d="M100.293 47.2195H97.1707V50.3415H100.293V47.2195Z" fill="black"/>
<path d="M103.415 47.2195H100.293V50.3415H103.415V47.2195Z" fill="black"/>
<path d="M106.537 47.2195H103.415V50.3415H106.537V47.2195Z" fill="black"/>
<path d="M115.902 47.2195H112.78V50.3415H115.902V47.2195Z" fill="black"/>
<path d="M125.268 47.2195H122.146V50.3415H125.268V47.2195Z" fill="black"/>
<path d="M128.39 47.2195H125.268V50.3415H128.39V47.2195Z" fill="black"/>
<path d="M134.634 47.2195H131.512V50.3415H134.634V47.2195Z" fill="black"/>
<path d="M137.756 47.2195H134.634V50.3415H137.756V47.2195Z" fill="black"/>
<path d="M140.878 47.2195H137.756V50.3415H140.878V47.2195Z" fill="black"/>
<path d="M19.122 50.3415H16V53.4634H19.122V50.3415Z" fill="black"/>
<path d="M22.2439 50.3415H19.122V53.4634H22.2439V50.3415Z" fill="black"/>
<path d="M25.3659 50.3415H22.2439V53.4634H25.3659V50.3415Z" fill="black"/>
<path d="M31.6098 50.3415H28.4878L28.4878 53.4634H31.6098V50.3415Z" fill="black"/>
<path d="M44.0976 50.3415H40.9756V53.4634H44.0976V50.3415Z" fill="black"/>
<path d="M47.2195 50.3415H44.0976V53.4634H47.2195V50.3415Z" fill="black"/>
<path d="M53.4634 50.3415H50.3415V53.4634H53.4634V50.3415Z" fill="black"/>
<path d="M62.8293 50.3415H59.7073V53.4634H62.8293V50.3415Z" fill="black"/>
<path d="M65.9512 50.3415H62.8293V53.4634H65.9512V50.3415Z" fill="black"/>
<path d="M75.3171 50.3415H72.1951V53.4634H75.3171V50.3415Z" fill="black"/>
<path d="M81.561 50.3415H78.439V53.4634H81.561V50.3415Z" fill="black"/>
<path d="M87.8049 50.3415H84.6829V53.4634H87.8049V50.3415Z" fill="black"/>
<path d="M90.9268 50.3415H87.8049V53.4634H90.9268V50.3415Z" fill="black"/>
<path d="M94.0488 50.3415H90.9268V53.4634H94.0488V50.3415Z" fill="black"/>
<path d="M109.659 50.3415H106.537V53.4634H109.659V50.3415Z" fill="black"/>
<path d="M119.024 50.3415H115.902V53.4634H119.024V50.3415Z" fill="black"/>
<path d="M122.146 50.3415H119.024V53.4634H122.146V50.3415Z" fill="black"/>
<path d="M125.268 50.3415H122.146V53.4634H125.268V50.3415Z" fill="black"/>
<path d="M134.634 50.3415H131.512V53.4634H134.634V50.3415Z" fill="black"/>
<path d="M137.756 50.3415H134.634V53.4634H137.756V50.3415Z" fill="black"/>
<path d="M19.122 53.4634H16V56.5854H19.122V53.4634Z" fill="black"/>
<path d="M25.3659 53.4634H22.2439V56.5854H25.3659V53.4634Z" fill="black"/>
<path d="M37.8537 53.4634H34.7317V56.5854H37.8537V53.4634Z" fill="black"/>
<path d="M47.2195 53.4634H44.0976V56.5854H47.2195V53.4634Z" fill="black"/>
<path d="M50.3415 53.4634H47.2195V56.5854H50.3415V53.4634Z" fill="black"/>
<path d="M53.4634 53.4634H50.3415V56.5854H53.4634V53.4634Z" fill="black"/>
<path d="M65.9512 53.4634H62.8293V56.5854H65.9512V53.4634Z" fill="black"/>
<path d="M72.1951 53.4634H69.0732V56.5854H72.1951V53.4634Z" fill="black"/>
<path d="M75.3171 53.4634H72.1951V56.5854H75.3171V53.4634Z" fill="black"/>
<path d="M78.439 53.4634H75.3171V56.5854H78.439V53.4634Z" fill="black"/>
<path d="M87.8049 53.4634H84.6829V56.5854H87.8049V53.4634Z" fill="black"/>
<path d="M94.0488 53.4634H90.9268V56.5854H94.0488V53.4634Z" fill="black"/>
<path d="M100.293 53.4634H97.1707V56.5854H100.293V53.4634Z" fill="black"/>
<path d="M106.537 53.4634H103.415V56.5854H106.537V53.4634Z" fill="black"/>
<path d="M112.78 53.4634H109.659V56.5854H112.78V53.4634Z" fill="black"/>
<path d="M122.146 53.4634H119.024V56.5854H122.146V53.4634Z" fill="black"/>
<path d="M128.39 53.4634H125.268V56.5854H128.39V53.4634Z" fill="black"/>
<path d="M134.634 53.4634H131.512V56.5854H134.634V53.4634Z" fill="black"/>
<path d="M144 53.4634H140.878V56.5854H144V53.4634Z" fill="black"/>
<path d="M22.2439 56.5854H19.122V59.7073H22.2439V56.5854Z" fill="black"/>
<path d="M31.6098 56.5854H28.4878V59.7073H31.6098V56.5854Z" fill="black"/>
<path d="M34.7317 56.5854H31.6098V59.7073H34.7317V56.5854Z" fill="black"/>
<path d="M40.9756 56.5854H37.8537V59.7073H40.9756V56.5854Z" fill="black"/>
<path d="M44.0976 56.5854H40.9756V59.7073H44.0976V56.5854Z" fill="black"/>
<path d="M47.2195 56.5854H44.0976V59.7073H47.2195V56.5854Z" fill="black"/>
<path d="M59.7073 56.5854H56.5854V59.7073H59.7073V56.5854Z" fill="black"/>
<path d="M65.9512 56.5854H62.8293V59.7073H65.9512V56.5854Z" fill="black"/>
<path d="M72.1951 56.5854H69.0732V59.7073H72.1951V56.5854Z" fill="black"/>
<path d="M75.3171 56.5854H72.1951V59.7073H75.3171V56.5854Z" fill="black"/>
<path d="M94.0488 56.5854H90.9268V59.7073H94.0488V56.5854Z" fill="black"/>
<path d="M100.293 56.5854H97.1707V59.7073H100.293V56.5854Z" fill="black"/>
<path d="M106.537 56.5854H103.415V59.7073H106.537V56.5854Z" fill="black"/>
<path d="M112.78 56.5854H109.659V59.7073H112.78V56.5854Z" fill="black"/>
<path d="M122.146 56.5854H119.024V59.7073H122.146V56.5854Z" fill="black"/>
<path d="M131.512 56.5854H128.39V59.7073H131.512V56.5854Z" fill="black"/>
<path d="M137.756 56.5854H134.634V59.7073H137.756V56.5854Z" fill="black"/>
<path d="M140.878 56.5854H137.756V59.7073H140.878V56.5854Z" fill="black"/>
<path d="M144 56.5854H140.878V59.7073H144V56.5854Z" fill="black"/>
<path d="M25.3659 59.7073H22.2439V62.8293H25.3659V59.7073Z" fill="black"/>
<path d="M28.4878 59.7073H25.3659V62.8293H28.4878L28.4878 59.7073Z" fill="black"/>
<path d="M34.7317 59.7073H31.6098V62.8293H34.7317V59.7073Z" fill="black"/>
<path d="M37.8537 59.7073H34.7317V62.8293H37.8537V59.7073Z" fill="black"/>
<path d="M50.3415 59.7073H47.2195V62.8293H50.3415V59.7073Z" fill="black"/>
<path d="M56.5854 59.7073H53.4634V62.8293H56.5854V59.7073Z" fill="black"/>
<path d="M59.7073 59.7073H56.5854V62.8293H59.7073V59.7073Z" fill="black"/>
<path d="M72.1951 59.7073H69.0732V62.8293H72.1951V59.7073Z" fill="black"/>
<path d="M81.561 59.7073H78.439V62.8293H81.561V59.7073Z" fill="black"/>
<path d="M84.6829 59.7073H81.561V62.8293H84.6829V59.7073Z" fill="black"/>
<path d="M87.8049 59.7073H84.6829V62.8293H87.8049V59.7073Z" fill="black"/>
<path d="M90.9268 59.7073H87.8049V62.8293H90.9268V59.7073Z" fill="black"/>
<path d="M100.293 59.7073H97.1707V62.8293H100.293V59.7073Z" fill="black"/>
<path d="M103.415 59.7073H100.293V62.8293H103.415V59.7073Z" fill="black"/>
<path d="M119.024 59.7073H115.902V62.8293H119.024V59.7073Z" fill="black"/>
<path d="M125.268 59.7073H122.146V62.8293H125.268V59.7073Z" fill="black"/>
<path d="M131.512 59.7073H128.39V62.8293H131.512V59.7073Z" fill="black"/>
<path d="M134.634 59.7073H131.512V62.8293H134.634V59.7073Z" fill="black"/>
<path d="M140.878 59.7073H137.756V62.8293H140.878V59.7073Z" fill="black"/>
<path d="M19.122 62.8293H16V65.9512H19.122V62.8293Z" fill="black"/>
<path d="M25.3659 62.8293H22.2439V65.9512H25.3659V62.8293Z" fill="black"/>
<path d="M28.4878 62.8293H25.3659V65.9512H28.4878V62.8293Z" fill="black"/>
<path d="M31.6098 62.8293H28.4878V65.9512H31.6098V62.8293Z" fill="black"/>
<path d="M34.7317 62.8293H31.6098V65.9512H34.7317V62.8293Z" fill="black"/>
<path d="M40.9756 62.8293H37.8537V65.9512H40.9756V62.8293Z" fill="black"/>
<path d="M50.3415 62.8293H47.2195V65.9512H50.3415V62.8293Z" fill="black"/>
<path d="M59.7073 62.8293H56.5854V65.9512H59.7073V62.8293Z" fill="black"/>
<path d="M62.8293 62.8293H59.7073V65.9512H62.8293V62.8293Z" fill="black"/>
<path d="M69.0732 62.8293H65.9512V65.9512H69.0732V62.8293Z" fill="black"/>
<path d="M72.1951 62.8293H69.0732V65.9512H72.1951V62.8293Z" fill="black"/>
<path d="M84.6829 62.8293H81.561V65.9512H84.6829V62.8293Z" fill="black"/>
<path d="M87.8049 62.8293H84.6829V65.9512H87.8049V62.8293Z" fill="black"/>
<path d="M90.9268 62.8293H87.8049V65.9512H90.9268V62.8293Z" fill="black"/>
<path d="M94.0488 62.8293H90.9268V65.9512H94.0488V62.8293Z" fill="black"/>
<path d="M97.1707 62.8293H94.0488V65.9512H97.1707V62.8293Z" fill="black"/>
<path d="M100.293 62.8293H97.1707V65.9512H100.293V62.8293Z" fill="black"/>
<path d="M119.024 62.8293H115.902V65.9512H119.024V62.8293Z" fill="black"/>
<path d="M122.146 62.8293H119.024V65.9512H122.146V62.8293Z" fill="black"/>
<path d="M128.39 62.8293H125.268V65.9512H128.39V62.8293Z" fill="black"/>
<path d="M137.756 62.8293H134.634V65.9512H137.756V62.8293Z" fill="black"/>
<path d="M144 62.8293H140.878V65.9512H144V62.8293Z" fill="black"/>
<path d="M19.122 65.9512H16V69.0732H19.122V65.9512Z" fill="black"/>
<path d="M22.2439 65.9512H19.122V69.0732H22.2439V65.9512Z" fill="black"/>
<path d="M28.4878 65.9512H25.3659V69.0732H28.4878V65.9512Z" fill="black"/>
<path d="M31.6098 65.9512H28.4878V69.0732H31.6098V65.9512Z" fill="black"/>
<path d="M34.7317 65.9512H31.6098V69.0732H34.7317V65.9512Z" fill="black"/>
<path d="M37.8537 65.9512H34.7317V69.0732H37.8537V65.9512Z" fill="black"/>
<path d="M40.9756 65.9512H37.8537V69.0732H40.9756V65.9512Z" fill="black"/>
<path d="M44.0976 65.9512H40.9756V69.0732H44.0976V65.9512Z" fill="black"/>
<path d="M47.2195 65.9512H44.0976V69.0732H47.2195V65.9512Z" fill="black"/>
<path d="M50.3415 65.9512H47.2195V69.0732H50.3415V65.9512Z" fill="black"/>
<path d="M59.7073 65.9512H56.5854V69.0732H59.7073V65.9512Z" fill="black"/>
<path d="M62.8293 65.9512H59.7073V69.0732H62.8293V65.9512Z" fill="black"/>
<path d="M65.9512 65.9512H62.8293V69.0732H65.9512V65.9512Z" fill="black"/>
<path d="M69.0732 65.9512H65.9512V69.0732H69.0732V65.9512Z" fill="black"/>
<path d="M75.3171 65.9512H72.1951V69.0732H75.3171V65.9512Z" fill="black"/>
<path d="M78.439 65.9512H75.3171V69.0732H78.439V65.9512Z" fill="black"/>
<path d="M87.8049 65.9512H84.6829V69.0732H87.8049V65.9512Z" fill="black"/>
<path d="M94.0488 65.9512H90.9268V69.0732H94.0488V65.9512Z" fill="black"/>
<path d="M97.1707 65.9512H94.0488V69.0732H97.1707V65.9512Z" fill="black"/>
<path d="M112.78 65.9512H109.659V69.0732H112.78V65.9512Z" fill="black"/>
<path d="M115.902 65.9512H112.78V69.0732H115.902V65.9512Z" fill="black"/>
<path d="M119.024 65.9512H115.902V69.0732H119.024V65.9512Z" fill="black"/>
<path d="M122.146 65.9512H119.024V69.0732H122.146V65.9512Z" fill="black"/>
<path d="M128.39 65.9512H125.268V69.0732H128.39V65.9512Z" fill="black"/>
<path d="M131.512 65.9512H128.39V69.0732H131.512V65.9512Z" fill="black"/>
<path d="M22.2439 69.0732H19.122V72.1951H22.2439V69.0732Z" fill="black"/>
<path d="M31.6098 69.0732H28.4878L28.4878 72.1951H31.6098V69.0732Z" fill="black"/>
<path d="M40.9756 69.0732H37.8537V72.1951H40.9756V69.0732Z" fill="black"/>
<path d="M44.0976 69.0732H40.9756V72.1951H44.0976V69.0732Z" fill="black"/>
<path d="M53.4634 69.0732H50.3415V72.1951H53.4634V69.0732Z" fill="black"/>
<path d="M56.5854 69.0732H53.4634V72.1951H56.5854V69.0732Z" fill="black"/>
<path d="M62.8293 69.0732H59.7073V72.1951H62.8293V69.0732Z" fill="black"/>
<path d="M65.9512 69.0732H62.8293V72.1951H65.9512V69.0732Z" fill="black"/>
<path d="M69.0732 69.0732H65.9512V72.1951H69.0732V69.0732Z" fill="black"/>
<path d="M75.3171 69.0732H72.1951V72.1951H75.3171V69.0732Z" fill="black"/>
<path d="M81.561 69.0732H78.439V72.1951H81.561V69.0732Z" fill="black"/>
<path d="M87.8049 69.0732H84.6829V72.1951H87.8049V69.0732Z" fill="black"/>
<path d="M90.9268 69.0732H87.8049V72.1951H90.9268V69.0732Z" fill="black"/>
<path d="M100.293 69.0732H97.1707V72.1951H100.293V69.0732Z" fill="black"/>
<path d="M103.415 69.0732H100.293V72.1951H103.415V69.0732Z" fill="black"/>
<path d="M106.537 69.0732H103.415V72.1951H106.537V69.0732Z" fill="black"/>
<path d="M112.78 69.0732H109.659V72.1951H112.78V69.0732Z" fill="black"/>
<path d="M115.902 69.0732H112.78V72.1951H115.902V69.0732Z" fill="black"/>
<path d="M119.024 69.0732H115.902V72.1951H119.024V69.0732Z" fill="black"/>
<path d="M122.146 69.0732H119.024V72.1951H122.146V69.0732Z" fill="black"/>
<path d="M128.39 69.0732H125.268V72.1951H128.39V69.0732Z" fill="black"/>
<path d="M131.512 69.0732H128.39V72.1951H131.512V69.0732Z" fill="black"/>
<path d="M137.756 69.0732H134.634V72.1951H137.756V69.0732Z" fill="black"/>
<path d="M140.878 69.0732H137.756V72.1951H140.878V69.0732Z" fill="black"/>
<path d="M22.2439 72.1951H19.122V75.3171H22.2439V72.1951Z" fill="black"/>
<path d="M25.3659 72.1951H22.2439V75.3171H25.3659V72.1951Z" fill="black"/>
<path d="M28.4878 72.1951H25.3659V75.3171H28.4878L28.4878 72.1951Z" fill="black"/>
<path d="M31.6098 72.1951H28.4878L28.4878 75.3171H31.6098V72.1951Z" fill="black"/>
<path d="M37.8537 72.1951H34.7317V75.3171H37.8537V72.1951Z" fill="black"/>
<path d="M47.2195 72.1951H44.0976V75.3171H47.2195V72.1951Z" fill="black"/>
<path d="M53.4634 72.1951H50.3415V75.3171H53.4634V72.1951Z" fill="black"/>
<path d="M59.7073 72.1951H56.5854V75.3171H59.7073V72.1951Z" fill="black"/>
<path d="M62.8293 72.1951H59.7073V75.3171H62.8293V72.1951Z" fill="black"/>
<path d="M65.9512 72.1951H62.8293V75.3171H65.9512V72.1951Z" fill="black"/>
<path d="M69.0732 72.1951H65.9512V75.3171H69.0732V72.1951Z" fill="black"/>
<path d="M75.3171 72.1951H72.1951V75.3171H75.3171V72.1951Z" fill="black"/>
<path d="M78.439 72.1951H75.3171V75.3171H78.439V72.1951Z" fill="black"/>
<path d="M81.561 72.1951H78.439V75.3171H81.561V72.1951Z" fill="black"/>
<path d="M84.6829 72.1951H81.561V75.3171H84.6829V72.1951Z" fill="black"/>
<path d="M87.8049 72.1951H84.6829V75.3171H87.8049V72.1951Z" fill="black"/>
<path d="M94.0488 72.1951H90.9268V75.3171H94.0488V72.1951Z" fill="black"/>
<path d="M97.1707 72.1951H94.0488V75.3171H97.1707V72.1951Z" fill="black"/>
<path d="M100.293 72.1951H97.1707V75.3171H100.293V72.1951Z" fill="black"/>
<path d="M103.415 72.1951H100.293V75.3171H103.415V72.1951Z" fill="black"/>
<path d="M106.537 72.1951H103.415V75.3171H106.537V72.1951Z" fill="black"/>
<path d="M112.78 72.1951H109.659V75.3171H112.78V72.1951Z" fill="black"/>
<path d="M122.146 72.1951H119.024V75.3171H122.146V72.1951Z" fill="black"/>
<path d="M137.756 72.1951H134.634V75.3171H137.756V72.1951Z" fill="black"/>
<path d="M144 72.1951H140.878V75.3171H144V72.1951Z" fill="black"/>
<path d="M19.122 75.3171H16V78.439H19.122V75.3171Z" fill="black"/>
<path d="M22.2439 75.3171H19.122V78.439H22.2439V75.3171Z" fill="black"/>
<path d="M28.4878 75.3171H25.3659V78.439H28.4878V75.3171Z" fill="black"/>
<path d="M31.6098 75.3171H28.4878V78.439H31.6098V75.3171Z" fill="black"/>
<path d="M34.7317 75.3171H31.6098V78.439H34.7317V75.3171Z" fill="black"/>
<path d="M44.0976 75.3171H40.9756V78.439H44.0976V75.3171Z" fill="black"/>
<path d="M47.2195 75.3171H44.0976V78.439H47.2195V75.3171Z" fill="black"/>
<path d="M56.5854 75.3171H53.4634V78.439H56.5854V75.3171Z" fill="black"/>
<path d="M62.8293 75.3171H59.7073V78.439H62.8293V75.3171Z" fill="black"/>
<path d="M69.0732 75.3171H65.9512V78.439H69.0732V75.3171Z" fill="black"/>
<path d="M72.1951 75.3171H69.0732V78.439H72.1951V75.3171Z" fill="black"/>
<path d="M81.561 75.3171H78.439V78.439H81.561V75.3171Z" fill="black"/>
<path d="M94.0488 75.3171H90.9268V78.439H94.0488V75.3171Z" fill="black"/>
<path d="M103.415 75.3171H100.293V78.439H103.415V75.3171Z" fill="black"/>
<path d="M115.902 75.3171H112.78V78.439H115.902V75.3171Z" fill="black"/>
<path d="M131.512 75.3171H128.39V78.439H131.512V75.3171Z" fill="black"/>
<path d="M134.634 75.3171H131.512V78.439H134.634V75.3171Z" fill="black"/>
<path d="M137.756 75.3171H134.634V78.439H137.756V75.3171Z" fill="black"/>
<path d="M22.2439 78.439H19.122V81.561H22.2439V78.439Z" fill="black"/>
<path d="M31.6098 78.439H28.4878L28.4878 81.561H31.6098V78.439Z" fill="black"/>
<path d="M34.7317 78.439H31.6098V81.561H34.7317V78.439Z" fill="black"/>
<path d="M37.8537 78.439H34.7317V81.561H37.8537V78.439Z" fill="black"/>
<path d="M50.3415 78.439H47.2195V81.561H50.3415V78.439Z" fill="black"/>
<path d="M75.3171 78.439H72.1951V81.561H75.3171V78.439Z" fill="black"/>
<path d="M84.6829 78.439H81.561V81.561H84.6829V78.439Z" fill="black"/>
<path d="M87.8049 78.439H84.6829V81.561H87.8049V78.439Z" fill="black"/>
<path d="M97.1707 78.439H94.0488V81.561H97.1707V78.439Z" fill="black"/>
<path d="M100.293 78.439H97.1707V81.561H100.293V78.439Z" fill="black"/>
<path d="M106.537 78.439H103.415V81.561H106.537V78.439Z" fill="black"/>
<path d="M109.659 78.439H106.537V81.561H109.659V78.439Z" fill="black"/>
<path d="M112.78 78.439H109.659V81.561H112.78V78.439Z" fill="black"/>
<path d="M115.902 78.439H112.78V81.561H115.902V78.439Z" fill="black"/>
<path d="M122.146 78.439H119.024V81.561H122.146V78.439Z" fill="black"/>
<path d="M125.268 78.439H122.146V81.561H125.268V78.439Z" fill="black"/>
<path d="M131.512 78.439H128.39V81.561H131.512V78.439Z" fill="black"/>
<path d="M137.756 78.439H134.634V81.561H137.756V78.439Z" fill="black"/>
<path d="M140.878 78.439H137.756V81.561H140.878V78.439Z" fill="black"/>
<path d="M19.122 81.561H16V84.6829H19.122V81.561Z" fill="black"/>
<path d="M25.3659 81.561H22.2439V84.6829H25.3659V81.561Z" fill="black"/>
<path d="M31.6098 81.561H28.4878V84.6829H31.6098V81.561Z" fill="black"/>
<path d="M50.3415 81.561H47.2195V84.6829H50.3415V81.561Z" fill="black"/>
<path d="M53.4634 81.561H50.3415V84.6829H53.4634V81.561Z" fill="black"/>
<path d="M62.8293 81.561H59.7073V84.6829H62.8293V81.561Z" fill="black"/>
<path d="M65.9512 81.561H62.8293V84.6829H65.9512V81.561Z" fill="black"/>
<path d="M69.0732 81.561H65.9512V84.6829H69.0732V81.561Z" fill="black"/>
<path d="M72.1951 81.561H69.0732V84.6829H72.1951V81.561Z" fill="black"/>
<path d="M78.439 81.561H75.3171V84.6829H78.439V81.561Z" fill="black"/>
<path d="M81.561 81.561H78.439V84.6829H81.561V81.561Z" fill="black"/>
<path d="M87.8049 81.561H84.6829V84.6829H87.8049V81.561Z" fill="black"/>
<path d="M90.9268 81.561H87.8049V84.6829H90.9268V81.561Z" fill="black"/>
<path d="M94.0488 81.561H90.9268V84.6829H94.0488V81.561Z" fill="black"/>
<path d="M100.293 81.561H97.1707V84.6829H100.293V81.561Z" fill="black"/>
<path d="M109.659 81.561H106.537V84.6829H109.659V81.561Z" fill="black"/>
<path d="M112.78 81.561H109.659V84.6829H112.78V81.561Z" fill="black"/>
<path d="M125.268 81.561H122.146V84.6829H125.268V81.561Z" fill="black"/>
<path d="M131.512 81.561H128.39V84.6829H131.512V81.561Z" fill="black"/>
<path d="M137.756 81.561H134.634V84.6829H137.756V81.561Z" fill="black"/>
<path d="M140.878 81.561H137.756V84.6829H140.878V81.561Z" fill="black"/>
<path d="M34.7317 84.6829H31.6098V87.8049H34.7317V84.6829Z" fill="black"/>
<path d="M37.8537 84.6829H34.7317V87.8049H37.8537V84.6829Z" fill="black"/>
<path d="M40.9756 84.6829H37.8537V87.8049H40.9756V84.6829Z" fill="black"/>
<path d="M44.0976 84.6829H40.9756V87.8049H44.0976V84.6829Z" fill="black"/>
<path d="M50.3415 84.6829H47.2195V87.8049H50.3415V84.6829Z" fill="black"/>
<path d="M56.5854 84.6829H53.4634V87.8049H56.5854V84.6829Z" fill="black"/>
<path d="M59.7073 84.6829H56.5854V87.8049H59.7073V84.6829Z" fill="black"/>
<path d="M62.8293 84.6829H59.7073V87.8049H62.8293V84.6829Z" fill="black"/>
<path d="M65.9512 84.6829H62.8293V87.8049H65.9512V84.6829Z" fill="black"/>
<path d="M69.0732 84.6829H65.9512V87.8049H69.0732V84.6829Z" fill="black"/>
<path d="M87.8049 84.6829H84.6829V87.8049H87.8049V84.6829Z" fill="black"/>
<path d="M97.1707 84.6829H94.0488V87.8049H97.1707V84.6829Z" fill="black"/>
<path d="M106.537 84.6829H103.415V87.8049H106.537V84.6829Z" fill="black"/>
<path d="M119.024 84.6829H115.902V87.8049H119.024V84.6829Z" fill="black"/>
<path d="M125.268 84.6829H122.146V87.8049H125.268V84.6829Z" fill="black"/>
<path d="M128.39 84.6829H125.268V87.8049H128.39V84.6829Z" fill="black"/>
<path d="M131.512 84.6829H128.39V87.8049H131.512V84.6829Z" fill="black"/>
<path d="M134.634 84.6829H131.512V87.8049H134.634V84.6829Z" fill="black"/>
<path d="M137.756 84.6829H134.634V87.8049H137.756V84.6829Z" fill="black"/>
<path d="M144 84.6829H140.878V87.8049H144V84.6829Z" fill="black"/>
<path d="M19.122 87.8049H16V90.9268H19.122V87.8049Z" fill="black"/>
<path d="M22.2439 87.8049H19.122V90.9268H22.2439V87.8049Z" fill="black"/>
<path d="M31.6098 87.8049H28.4878V90.9268H31.6098V87.8049Z" fill="black"/>
<path d="M34.7317 87.8049H31.6098V90.9268H34.7317V87.8049Z" fill="black"/>
<path d="M40.9756 87.8049H37.8537V90.9268H40.9756V87.8049Z" fill="black"/>
<path d="M47.2195 87.8049H44.0976V90.9268H47.2195V87.8049Z" fill="black"/>
<path d="M56.5854 87.8049H53.4634V90.9268H56.5854V87.8049Z" fill="black"/>
<path d="M65.9512 87.8049H62.8293V90.9268H65.9512V87.8049Z" fill="black"/>
<path d="M81.561 87.8049H78.439V90.9268H81.561V87.8049Z" fill="black"/>
<path d="M84.6829 87.8049H81.561V90.9268H84.6829V87.8049Z" fill="black"/>
<path d="M94.0488 87.8049H90.9268V90.9268H94.0488V87.8049Z" fill="black"/>
<path d="M103.415 87.8049H100.293V90.9268H103.415V87.8049Z" fill="black"/>
<path d="M106.537 87.8049H103.415V90.9268H106.537V87.8049Z" fill="black"/>
<path d="M112.78 87.8049H109.659V90.9268H112.78V87.8049Z" fill="black"/>
<path d="M119.024 87.8049H115.902V90.9268H119.024V87.8049Z" fill="black"/>
<path d="M131.512 87.8049H128.39V90.9268H131.512V87.8049Z" fill="black"/>
<path d="M140.878 87.8049H137.756V90.9268H140.878V87.8049Z" fill="black"/>
<path d="M25.3659 90.9268H22.2439V94.0488H25.3659V90.9268Z" fill="black"/>
<path d="M28.4878 90.9268H25.3659V94.0488H28.4878L28.4878 90.9268Z" fill="black"/>
<path d="M37.8537 90.9268H34.7317V94.0488H37.8537V90.9268Z" fill="black"/>
<path d="M40.9756 90.9268H37.8537V94.0488H40.9756V90.9268Z" fill="black"/>
<path d="M50.3415 90.9268H47.2195V94.0488H50.3415V90.9268Z" fill="black"/>
<path d="M56.5854 90.9268H53.4634V94.0488H56.5854V90.9268Z" fill="black"/>
<path d="M59.7073 90.9268H56.5854V94.0488H59.7073V90.9268Z" fill="black"/>
<path d="M62.8293 90.9268H59.7073V94.0488H62.8293V90.9268Z" fill="black"/>
<path d="M65.9512 90.9268H62.8293V94.0488H65.9512V90.9268Z" fill="black"/>
<path d="M69.0732 90.9268H65.9512V94.0488H69.0732V90.9268Z" fill="black"/>
<path d="M87.8049 90.9268H84.6829V94.0488H87.8049V90.9268Z" fill="black"/>
<path d="M97.1707 90.9268H94.0488V94.0488H97.1707V90.9268Z" fill="black"/>
<path d="M100.293 90.9268H97.1707V94.0488H100.293V90.9268Z" fill="black"/>
<path d="M122.146 90.9268H119.024V94.0488H122.146V90.9268Z" fill="black"/>
<path d="M125.268 90.9268H122.146V94.0488H125.268V90.9268Z" fill="black"/>
<path d="M134.634 90.9268H131.512V94.0488H134.634V90.9268Z" fill="black"/>
<path d="M137.756 90.9268H134.634V94.0488H137.756V90.9268Z" fill="black"/>
<path d="M144 90.9268H140.878V94.0488H144V90.9268Z" fill="black"/>
<path d="M19.122 94.0488H16V97.1707H19.122V94.0488Z" fill="black"/>
<path d="M28.4878 94.0488H25.3659V97.1707H28.4878V94.0488Z" fill="black"/>
<path d="M31.6098 94.0488H28.4878V97.1707H31.6098V94.0488Z" fill="black"/>
<path d="M40.9756 94.0488H37.8537V97.1707H40.9756V94.0488Z" fill="black"/>
<path d="M47.2195 94.0488H44.0976V97.1707H47.2195V94.0488Z" fill="black"/>
<path d="M50.3415 94.0488H47.2195V97.1707H50.3415V94.0488Z" fill="black"/>
<path d="M53.4634 94.0488H50.3415V97.1707H53.4634V94.0488Z" fill="black"/>
<path d="M56.5854 94.0488H53.4634V97.1707H56.5854V94.0488Z" fill="black"/>
<path d="M65.9512 94.0488H62.8293V97.1707H65.9512V94.0488Z" fill="black"/>
<path d="M69.0732 94.0488H65.9512V97.1707H69.0732V94.0488Z" fill="black"/>
<path d="M75.3171 94.0488H72.1951V97.1707H75.3171V94.0488Z" fill="black"/>
<path d="M81.561 94.0488H78.439V97.1707H81.561V94.0488Z" fill="black"/>
<path d="M84.6829 94.0488H81.561V97.1707H84.6829V94.0488Z" fill="black"/>
<path d="M87.8049 94.0488H84.6829V97.1707H87.8049V94.0488Z" fill="black"/>
<path d="M90.9268 94.0488H87.8049V97.1707H90.9268V94.0488Z" fill="black"/>
<path d="M94.0488 94.0488H90.9268V97.1707H94.0488V94.0488Z" fill="black"/>
<path d="M100.293 94.0488H97.1707V97.1707H100.293V94.0488Z" fill="black"/>
<path d="M103.415 94.0488H100.293V97.1707H103.415V94.0488Z" fill="black"/>
<path d="M112.78 94.0488H109.659V97.1707H112.78V94.0488Z" fill="black"/>
<path d="M115.902 94.0488H112.78V97.1707H115.902V94.0488Z" fill="black"/>
<path d="M122.146 94.0488H119.024V97.1707H122.146V94.0488Z" fill="black"/>
<path d="M128.39 94.0488H125.268V97.1707H128.39V94.0488Z" fill="black"/>
<path d="M131.512 94.0488H128.39V97.1707H131.512V94.0488Z" fill="black"/>
<path d="M137.756 94.0488H134.634V97.1707H137.756V94.0488Z" fill="black"/>
<path d="M140.878 94.0488H137.756V97.1707H140.878V94.0488Z" fill="black"/>
<path d="M144 94.0488H140.878V97.1707H144V94.0488Z" fill="black"/>
<path d="M19.122 97.1707H16V100.293H19.122V97.1707Z" fill="black"/>
<path d="M25.3659 97.1707H22.2439V100.293H25.3659V97.1707Z" fill="black"/>
<path d="M37.8537 97.1707H34.7317V100.293H37.8537V97.1707Z" fill="black"/>
<path d="M44.0976 97.1707H40.9756V100.293H44.0976V97.1707Z" fill="black"/>
<path d="M47.2195 97.1707H44.0976V100.293H47.2195V97.1707Z" fill="black"/>
<path d="M53.4634 97.1707H50.3415V100.293H53.4634V97.1707Z" fill="black"/>
<path d="M59.7073 97.1707H56.5854V100.293H59.7073V97.1707Z" fill="black"/>
<path d="M65.9512 97.1707H62.8293V100.293H65.9512V97.1707Z" fill="black"/>
<path d="M72.1951 97.1707H69.0732V100.293H72.1951V97.1707Z" fill="black"/>
<path d="M78.439 97.1707H75.3171V100.293H78.439V97.1707Z" fill="black"/>
<path d="M81.561 97.1707H78.439V100.293H81.561V97.1707Z" fill="black"/>
<path d="M87.8049 97.1707H84.6829V100.293H87.8049V97.1707Z" fill="black"/>
<path d="M97.1707 97.1707H94.0488V100.293H97.1707V97.1707Z" fill="black"/>
<path d="M100.293 97.1707H97.1707V100.293H100.293V97.1707Z" fill="black"/>
<path d="M106.537 97.1707H103.415V100.293H106.537V97.1707Z" fill="black"/>
<path d="M109.659 97.1707H106.537V100.293H109.659V97.1707Z" fill="black"/>
<path d="M112.78 97.1707H109.659V100.293H112.78V97.1707Z" fill="black"/>
<path d="M119.024 97.1707H115.902V100.293H119.024V97.1707Z" fill="black"/>
<path d="M122.146 97.1707H119.024V100.293H122.146V97.1707Z" fill="black"/>
<path d="M137.756 97.1707H134.634V100.293H137.756V97.1707Z" fill="black"/>
<path d="M140.878 97.1707H137.756V100.293H140.878V97.1707Z" fill="black"/>
<path d="M144 97.1707H140.878V100.293H144V97.1707Z" fill="black"/>
<path d="M19.122 100.293H16V103.415H19.122V100.293Z" fill="black"/>
<path d="M22.2439 100.293H19.122V103.415H22.2439V100.293Z" fill="black"/>
<path d="M25.3659 100.293H22.2439V103.415H25.3659V100.293Z" fill="black"/>
<path d="M40.9756 100.293H37.8537V103.415H40.9756V100.293Z" fill="black"/>
<path d="M44.0976 100.293H40.9756V103.415H44.0976V100.293Z" fill="black"/>
<path d="M56.5854 100.293H53.4634V103.415H56.5854V100.293Z" fill="black"/>
<path d="M81.561 100.293H78.439V103.415H81.561V100.293Z" fill="black"/>
<path d="M87.8049 100.293H84.6829V103.415H87.8049V100.293Z" fill="black"/>
<path d="M94.0488 100.293H90.9268V103.415H94.0488V100.293Z" fill="black"/>
<path d="M97.1707 100.293H94.0488V103.415H97.1707V100.293Z" fill="black"/>
<path d="M106.537 100.293H103.415V103.415H106.537V100.293Z" fill="black"/>
<path d="M109.659 100.293H106.537V103.415H109.659V100.293Z" fill="black"/>
<path d="M119.024 100.293H115.902V103.415H119.024V100.293Z" fill="black"/>
<path d="M122.146 100.293H119.024V103.415H122.146V100.293Z" fill="black"/>
<path d="M131.512 100.293H128.39V103.415H131.512V100.293Z" fill="black"/>
<path d="M137.756 100.293H134.634V103.415H137.756V100.293Z" fill="black"/>
<path d="M144 100.293H140.878V103.415H144V100.293Z" fill="black"/>
<path d="M19.122 103.415H16V106.537H19.122V103.415Z" fill="black"/>
<path d="M22.2439 103.415H19.122V106.537H22.2439V103.415Z" fill="black"/>
<path d="M25.3659 103.415H22.2439V106.537H25.3659V103.415Z" fill="black"/>
<path d="M31.6098 103.415H28.4878V106.537H31.6098V103.415Z" fill="black"/>
<path d="M37.8537 103.415H34.7317V106.537H37.8537V103.415Z" fill="black"/>
<path d="M47.2195 103.415H44.0976V106.537H47.2195V103.415Z" fill="black"/>
<path d="M50.3415 103.415H47.2195V106.537H50.3415V103.415Z" fill="black"/>
<path d="M53.4634 103.415H50.3415V106.537H53.4634V103.415Z" fill="black"/>
<path d="M59.7073 103.415H56.5854V106.537H59.7073V103.415Z" fill="black"/>
<path d="M62.8293 103.415H59.7073V106.537H62.8293V103.415Z" fill="black"/>
<path d="M72.1951 103.415H69.0732V106.537H72.1951V103.415Z" fill="black"/>
<path d="M75.3171 103.415H72.1951V106.537H75.3171V103.415Z" fill="black"/>
<path d="M84.6829 103.415H81.561V106.537H84.6829V103.415Z" fill="black"/>
<path d="M100.293 103.415H97.1707V106.537H100.293V103.415Z" fill="black"/>
<path d="M112.78 103.415H109.659V106.537H112.78V103.415Z" fill="black"/>
<path d="M125.268 103.415H122.146V106.537H125.268V103.415Z" fill="black"/>
<path d="M134.634 103.415H131.512V106.537H134.634V103.415Z" fill="black"/>
<path d="M137.756 103.415H134.634V106.537H137.756V103.415Z" fill="black"/>
<path d="M19.122 106.537H16V109.659H19.122V106.537Z" fill="black"/>
<path d="M31.6098 106.537H28.4878V109.659H31.6098V106.537Z" fill="black"/>
<path d="M34.7317 106.537H31.6098V109.659H34.7317V106.537Z" fill="black"/>
<path d="M40.9756 106.537H37.8537V109.659H40.9756V106.537Z" fill="black"/>
<path d="M44.0976 106.537H40.9756V109.659H44.0976V106.537Z" fill="black"/>
<path d="M50.3415 106.537H47.2195V109.659H50.3415V106.537Z" fill="black"/>
<path d="M53.4634 106.537H50.3415V109.659H53.4634V106.537Z" fill="black"/>
<path d="M62.8293 106.537H59.7073V109.659H62.8293V106.537Z" fill="black"/>
<path d="M65.9512 106.537H62.8293V109.659H65.9512V106.537Z" fill="black"/>
<path d="M75.3171 106.537H72.1951V109.659H75.3171V106.537Z" fill="black"/>
<path d="M78.439 106.537H75.3171V109.659H78.439V106.537Z" fill="black"/>
<path d="M87.8049 106.537H84.6829V109.659H87.8049V106.537Z" fill="black"/>
<path d="M90.9268 106.537H87.8049V109.659H90.9268V106.537Z" fill="black"/>
<path d="M100.293 106.537H97.1707V109.659H100.293V106.537Z" fill="black"/>
<path d="M109.659 106.537H106.537V109.659H109.659V106.537Z" fill="black"/>
<path d="M115.902 106.537H112.78V109.659H115.902V106.537Z" fill="black"/>
<path d="M119.024 106.537H115.902V109.659H119.024V106.537Z" fill="black"/>
<path d="M122.146 106.537H119.024V109.659H122.146V106.537Z" fill="black"/>
<path d="M125.268 106.537H122.146V109.659H125.268V106.537Z" fill="black"/>
<path d="M128.39 106.537H125.268V109.659H128.39V106.537Z" fill="black"/>
<path d="M131.512 106.537H128.39V109.659H131.512V106.537Z" fill="black"/>
<path d="M137.756 106.537H134.634V109.659H137.756V106.537Z" fill="black"/>
<path d="M140.878 106.537H137.756V109.659H140.878V106.537Z" fill="black"/>
<path d="M144 106.537H140.878V109.659H144V106.537Z" fill="black"/>
<path d="M22.2439 109.659H19.122V112.78H22.2439V109.659Z" fill="black"/>
<path d="M28.4878 109.659H25.3659V112.78H28.4878L28.4878 109.659Z" fill="black"/>
<path d="M37.8537 109.659H34.7317V112.78H37.8537V109.659Z" fill="black"/>
<path d="M47.2195 109.659H44.0976V112.78H47.2195V109.659Z" fill="black"/>
<path d="M50.3415 109.659H47.2195V112.78H50.3415V109.659Z" fill="black"/>
<path d="M56.5854 109.659H53.4634V112.78H56.5854V109.659Z" fill="black"/>
<path d="M59.7073 109.659H56.5854V112.78H59.7073V109.659Z" fill="black"/>
<path d="M62.8293 109.659H59.7073V112.78H62.8293V109.659Z" fill="black"/>
<path d="M69.0732 109.659H65.9512V112.78H69.0732V109.659Z" fill="black"/>
<path d="M72.1951 109.659H69.0732V112.78H72.1951V109.659Z" fill="black"/>
<path d="M75.3171 109.659H72.1951V112.78H75.3171V109.659Z" fill="black"/>
<path d="M81.561 109.659H78.439V112.78H81.561V109.659Z" fill="black"/>
<path d="M84.6829 109.659H81.561V112.78H84.6829V109.659Z" fill="black"/>
<path d="M87.8049 109.659H84.6829V112.78H87.8049V109.659Z" fill="black"/>
<path d="M94.0488 109.659H90.9268V112.78H94.0488V109.659Z" fill="black"/>
<path d="M97.1707 109.659H94.0488V112.78H97.1707V109.659Z" fill="black"/>
<path d="M100.293 109.659H97.1707V112.78H100.293V109.659Z" fill="black"/>
<path d="M106.537 109.659H103.415V112.78H106.537V109.659Z" fill="black"/>
<path d="M112.78 109.659H109.659V112.78H112.78V109.659Z" fill="black"/>
<path d="M122.146 109.659H119.024V112.78H122.146V109.659Z" fill="black"/>
<path d="M128.39 109.659H125.268V112.78H128.39V109.659Z" fill="black"/>
<path d="M134.634 109.659H131.512V112.78H134.634V109.659Z" fill="black"/>
<path d="M140.878 109.659H137.756V112.78H140.878V109.659Z" fill="black"/>
<path d="M19.122 112.78H16V115.902H19.122V112.78Z" fill="black"/>
<path d="M22.2439 112.78H19.122V115.902H22.2439V112.78Z" fill="black"/>
<path d="M25.3659 112.78H22.2439V115.902H25.3659V112.78Z" fill="black"/>
<path d="M31.6098 112.78H28.4878L28.4878 115.902H31.6098V112.78Z" fill="black"/>
<path d="M34.7317 112.78H31.6098V115.902H34.7317V112.78Z" fill="black"/>
<path d="M47.2195 112.78H44.0976V115.902H47.2195V112.78Z" fill="black"/>
<path d="M56.5854 112.78H53.4634V115.902H56.5854V112.78Z" fill="black"/>
<path d="M59.7073 112.78H56.5854V115.902H59.7073V112.78Z" fill="black"/>
<path d="M69.0732 112.78H65.9512V115.902H69.0732V112.78Z" fill="black"/>
<path d="M81.561 112.78H78.439V115.902H81.561V112.78Z" fill="black"/>
<path d="M84.6829 112.78H81.561V115.902H84.6829V112.78Z" fill="black"/>
<path d="M94.0488 112.78H90.9268V115.902H94.0488V112.78Z" fill="black"/>
<path d="M106.537 112.78H103.415V115.902H106.537V112.78Z" fill="black"/>
<path d="M115.902 112.78H112.78V115.902H115.902V112.78Z" fill="black"/>
<path d="M119.024 112.78H115.902V115.902H119.024V112.78Z" fill="black"/>
<path d="M122.146 112.78H119.024V115.902H122.146V112.78Z" fill="black"/>
<path d="M125.268 112.78H122.146V115.902H125.268V112.78Z" fill="black"/>
<path d="M128.39 112.78H125.268V115.902H128.39V112.78Z" fill="black"/>
<path d="M137.756 112.78H134.634V115.902H137.756V112.78Z" fill="black"/>
<path d="M140.878 112.78H137.756V115.902H140.878V112.78Z" fill="black"/>
<path d="M22.2439 115.902H19.122V119.024H22.2439V115.902Z" fill="black"/>
<path d="M25.3659 115.902H22.2439V119.024H25.3659V115.902Z" fill="black"/>
<path d="M28.4878 115.902H25.3659V119.024H28.4878L28.4878 115.902Z" fill="black"/>
<path d="M34.7317 115.902H31.6098V119.024H34.7317V115.902Z" fill="black"/>
<path d="M37.8537 115.902H34.7317V119.024H37.8537V115.902Z" fill="black"/>
<path d="M40.9756 115.902H37.8537V119.024H40.9756V115.902Z" fill="black"/>
<path d="M50.3415 115.902H47.2195V119.024H50.3415V115.902Z" fill="black"/>
<path d="M62.8293 115.902H59.7073V119.024H62.8293V115.902Z" fill="black"/>
<path d="M69.0732 115.902H65.9512V119.024H69.0732V115.902Z" fill="black"/>
<path d="M87.8049 115.902H84.6829V119.024H87.8049V115.902Z" fill="black"/>
<path d="M97.1707 115.902H94.0488V119.024H97.1707V115.902Z" fill="black"/>
<path d="M100.293 115.902H97.1707V119.024H100.293V115.902Z" fill="black"/>
<path d="M109.659 115.902H106.537V119.024H109.659V115.902Z" fill="black"/>
<path d="M112.78 115.902H109.659V119.024H112.78V115.902Z" fill="black"/>
<path d="M115.902 115.902H112.78V119.024H115.902V115.902Z" fill="black"/>
<path d="M119.024 115.902H115.902V119.024H119.024V115.902Z" fill="black"/>
<path d="M122.146 115.902H119.024V119.024H122.146V115.902Z" fill="black"/>
<path d="M125.268 115.902H122.146V119.024H125.268V115.902Z" fill="black"/>
<path d="M128.39 115.902H125.268V119.024H128.39V115.902Z" fill="black"/>
<path d="M131.512 115.902H128.39V119.024H131.512V115.902Z" fill="black"/>
<path d="M137.756 115.902H134.634V119.024H137.756V115.902Z" fill="black"/>
<path d="M59.7073 119.024H56.5854V122.146H59.7073V119.024Z" fill="black"/>
<path d="M65.9512 119.024H62.8293V122.146H65.9512V119.024Z" fill="black"/>
<path d="M72.1951 119.024H69.0732V122.146H72.1951V119.024Z" fill="black"/>
<path d="M75.3171 119.024H72.1951V122.146H75.3171V119.024Z" fill="black"/>
<path d="M78.439 119.024H75.3171V122.146H78.439V119.024Z" fill="black"/>
<path d="M81.561 119.024H78.439V122.146H81.561V119.024Z" fill="black"/>
<path d="M87.8049 119.024H84.6829V122.146H87.8049V119.024Z" fill="black"/>
<path d="M90.9268 119.024H87.8049V122.146H90.9268V119.024Z" fill="black"/>
<path d="M94.0488 119.024H90.9268V122.146H94.0488V119.024Z" fill="black"/>
<path d="M100.293 119.024H97.1707V122.146H100.293V119.024Z" fill="black"/>
<path d="M106.537 119.024H103.415V122.146H106.537V119.024Z" fill="black"/>
<path d="M109.659 119.024H106.537V122.146H109.659V119.024Z" fill="black"/>
<path d="M112.78 119.024H109.659V122.146H112.78V119.024Z" fill="black"/>
<path d="M119.024 119.024H115.902V122.146H119.024V119.024Z" fill="black"/>
<path d="M131.512 119.024H128.39V122.146H131.512V119.024Z" fill="black"/>
<path d="M144 119.024H140.878V122.146H144V119.024Z" fill="black"/>
<path d="M19.122 122.146H16V125.268H19.122V122.146Z" fill="black"/>
<path d="M22.2439 122.146H19.122V125.268H22.2439V122.146Z" fill="black"/>
<path d="M25.3659 122.146H22.2439V125.268H25.3659V122.146Z" fill="black"/>
<path d="M28.4878 122.146H25.3659V125.268H28.4878V122.146Z" fill="black"/>
<path d="M31.6098 122.146H28.4878V125.268H31.6098V122.146Z" fill="black"/>
<path d="M34.7317 122.146H31.6098V125.268H34.7317V122.146Z" fill="black"/>
<path d="M37.8537 122.146H34.7317V125.268H37.8537V122.146Z" fill="black"/>
<path d="M53.4634 122.146H50.3415V125.268H53.4634V122.146Z" fill="black"/>
<path d="M75.3171 122.146H72.1951V125.268H75.3171V122.146Z" fill="black"/>
<path d="M78.439 122.146H75.3171V125.268H78.439V122.146Z" fill="black"/>
<path d="M81.561 122.146H78.439V125.268H81.561V122.146Z" fill="black"/>
<path d="M84.6829 122.146H81.561V125.268H84.6829V122.146Z" fill="black"/>
<path d="M90.9268 122.146H87.8049V125.268H90.9268V122.146Z" fill="black"/>
<path d="M94.0488 122.146H90.9268V125.268H94.0488V122.146Z" fill="black"/>
<path d="M97.1707 122.146H94.0488V125.268H97.1707V122.146Z" fill="black"/>
<path d="M100.293 122.146H97.1707V125.268H100.293V122.146Z" fill="black"/>
<path d="M109.659 122.146H106.537V125.268H109.659V122.146Z" fill="black"/>
<path d="M112.78 122.146H109.659V125.268H112.78V122.146Z" fill="black"/>
<path d="M119.024 122.146H115.902V125.268H119.024V122.146Z" fill="black"/>
<path d="M125.268 122.146H122.146V125.268H125.268V122.146Z" fill="black"/>
<path d="M131.512 122.146H128.39V125.268H131.512V122.146Z" fill="black"/>
<path d="M134.634 122.146H131.512V125.268H134.634V122.146Z" fill="black"/>
<path d="M144 122.146H140.878V125.268H144V122.146Z" fill="black"/>
<path d="M19.122 125.268H16V128.39H19.122V125.268Z" fill="black"/>
<path d="M37.8537 125.268H34.7317V128.39H37.8537V125.268Z" fill="black"/>
<path d="M44.0976 125.268H40.9756V128.39H44.0976V125.268Z" fill="black"/>
<path d="M56.5854 125.268H53.4634V128.39H56.5854V125.268Z" fill="black"/>
<path d="M75.3171 125.268H72.1951V128.39H75.3171V125.268Z" fill="black"/>
<path d="M87.8049 125.268H84.6829V128.39H87.8049V125.268Z" fill="black"/>
<path d="M97.1707 125.268H94.0488V128.39H97.1707V125.268Z" fill="black"/>
<path d="M109.659 125.268H106.537V128.39H109.659V125.268Z" fill="black"/>
<path d="M112.78 125.268H109.659V128.39H112.78V125.268Z" fill="black"/>
<path d="M119.024 125.268H115.902V128.39H119.024V125.268Z" fill="black"/>
<path d="M131.512 125.268H128.39V128.39H131.512V125.268Z" fill="black"/>
<path d="M134.634 125.268H131.512V128.39H134.634V125.268Z" fill="black"/>
<path d="M140.878 125.268H137.756V128.39H140.878V125.268Z" fill="black"/>
<path d="M19.122 128.39H16V131.512H19.122V128.39Z" fill="black"/>
<path d="M25.3659 128.39H22.2439V131.512H25.3659V128.39Z" fill="black"/>
<path d="M28.4878 128.39H25.3659V131.512H28.4878V128.39Z" fill="black"/>
<path d="M31.6098 128.39H28.4878V131.512H31.6098V128.39Z" fill="black"/>
<path d="M37.8537 128.39H34.7317V131.512H37.8537V128.39Z" fill="black"/>
<path d="M47.2195 128.39H44.0976V131.512H47.2195V128.39Z" fill="black"/>
<path d="M50.3415 128.39H47.2195V131.512H50.3415V128.39Z" fill="black"/>
<path d="M56.5854 128.39H53.4634V131.512H56.5854V128.39Z" fill="black"/>
<path d="M59.7073 128.39H56.5854V131.512H59.7073V128.39Z" fill="black"/>
<path d="M62.8293 128.39H59.7073V131.512H62.8293V128.39Z" fill="black"/>
<path d="M69.0732 128.39H65.9512V131.512H69.0732V128.39Z" fill="black"/>
<path d="M72.1951 128.39H69.0732V131.512H72.1951V128.39Z" fill="black"/>
<path d="M75.3171 128.39H72.1951V131.512H75.3171V128.39Z" fill="black"/>
<path d="M84.6829 128.39H81.561V131.512H84.6829V128.39Z" fill="black"/>
<path d="M87.8049 128.39H84.6829V131.512H87.8049V128.39Z" fill="black"/>
<path d="M94.0488 128.39H90.9268V131.512H94.0488V128.39Z" fill="black"/>
<path d="M97.1707 128.39H94.0488V131.512H97.1707V128.39Z" fill="black"/>
<path d="M100.293 128.39H97.1707V131.512H100.293V128.39Z" fill="black"/>
<path d="M106.537 128.39H103.415V131.512H106.537V128.39Z" fill="black"/>
<path d="M109.659 128.39H106.537V131.512H109.659V128.39Z" fill="black"/>
<path d="M112.78 128.39H109.659V131.512H112.78V128.39Z" fill="black"/>
<path d="M119.024 128.39H115.902V131.512H119.024V128.39Z" fill="black"/>
<path d="M122.146 128.39H119.024V131.512H122.146V128.39Z" fill="black"/>
<path d="M125.268 128.39H122.146V131.512H125.268V128.39Z" fill="black"/>
<path d="M128.39 128.39H125.268V131.512H128.39V128.39Z" fill="black"/>
<path d="M131.512 128.39H128.39V131.512H131.512V128.39Z" fill="black"/>
<path d="M140.878 128.39H137.756V131.512H140.878V128.39Z" fill="black"/>
<path d="M19.122 131.512H16V134.634H19.122V131.512Z" fill="black"/>
<path d="M25.3659 131.512H22.2439V134.634H25.3659V131.512Z" fill="black"/>
<path d="M28.4878 131.512H25.3659V134.634H28.4878V131.512Z" fill="black"/>
<path d="M31.6098 131.512H28.4878V134.634H31.6098V131.512Z" fill="black"/>
<path d="M37.8537 131.512H34.7317V134.634H37.8537V131.512Z" fill="black"/>
<path d="M47.2195 131.512H44.0976V134.634H47.2195V131.512Z" fill="black"/>
<path d="M59.7073 131.512H56.5854V134.634H59.7073V131.512Z" fill="black"/>
<path d="M65.9512 131.512H62.8293V134.634H65.9512V131.512Z" fill="black"/>
<path d="M72.1951 131.512H69.0732V134.634H72.1951V131.512Z" fill="black"/>
<path d="M75.3171 131.512H72.1951V134.634H75.3171V131.512Z" fill="black"/>
<path d="M78.439 131.512H75.3171V134.634H78.439V131.512Z" fill="black"/>
<path d="M87.8049 131.512H84.6829V134.634H87.8049V131.512Z" fill="black"/>
<path d="M119.024 131.512H115.902V134.634H119.024V131.512Z" fill="black"/>
<path d="M125.268 131.512H122.146V134.634H125.268V131.512Z" fill="black"/>
<path d="M140.878 131.512H137.756V134.634H140.878V131.512Z" fill="black"/>
<path d="M19.122 134.634H16V137.756H19.122V134.634Z" fill="black"/>
<path d="M25.3659 134.634H22.2439V137.756H25.3659V134.634Z" fill="black"/>
<path d="M28.4878 134.634H25.3659V137.756H28.4878V134.634Z" fill="black"/>
<path d="M31.6098 134.634H28.4878V137.756H31.6098V134.634Z" fill="black"/>
<path d="M37.8537 134.634H34.7317V137.756H37.8537V134.634Z" fill="black"/>
<path d="M44.0976 134.634H40.9756V137.756H44.0976V134.634Z" fill="black"/>
<path d="M47.2195 134.634H44.0976V137.756H47.2195V134.634Z" fill="black"/>
<path d="M53.4634 134.634H50.3415V137.756H53.4634V134.634Z" fill="black"/>
<path d="M62.8293 134.634H59.7073V137.756H62.8293V134.634Z" fill="black"/>
<path d="M65.9512 134.634H62.8293V137.756H65.9512V134.634Z" fill="black"/>
<path d="M69.0732 134.634H65.9512V137.756H69.0732V134.634Z" fill="black"/>
<path d="M72.1951 134.634H69.0732V137.756H72.1951V134.634Z" fill="black"/>
<path d="M78.439 134.634H75.3171V137.756H78.439V134.634Z" fill="black"/>
<path d="M81.561 134.634H78.439V137.756H81.561V134.634Z" fill="black"/>
<path d="M87.8049 134.634H84.6829V137.756H87.8049V134.634Z" fill="black"/>
<path d="M90.9268 134.634H87.8049V137.756H90.9268V134.634Z" fill="black"/>
<path d="M97.1707 134.634H94.0488V137.756H97.1707V134.634Z" fill="black"/>
<path d="M103.415 134.634H100.293V137.756H103.415V134.634Z" fill="black"/>
<path d="M112.78 134.634H109.659V137.756H112.78V134.634Z" fill="black"/>
<path d="M115.902 134.634H112.78V137.756H115.902V134.634Z" fill="black"/>
<path d="M119.024 134.634H115.902V137.756H119.024V134.634Z" fill="black"/>
<path d="M125.268 134.634H122.146V137.756H125.268V134.634Z" fill="black"/>
<path d="M128.39 134.634H125.268V137.756H128.39V134.634Z" fill="black"/>
<path d="M134.634 134.634H131.512V137.756H134.634V134.634Z" fill="black"/>
<path d="M140.878 134.634H137.756V137.756H140.878V134.634Z" fill="black"/>
<path d="M144 134.634H140.878V137.756H144V134.634Z" fill="black"/>
<path d="M19.122 137.756H16V140.878H19.122V137.756Z" fill="black"/>
<path d="M37.8537 137.756H34.7317V140.878H37.8537V137.756Z" fill="black"/>
<path d="M47.2195 137.756H44.0976V140.878H47.2195V137.756Z" fill="black"/>
<path d="M56.5854 137.756H53.4634V140.878H56.5854V137.756Z" fill="black"/>
<path d="M59.7073 137.756H56.5854V140.878H59.7073V137.756Z" fill="black"/>
<path d="M62.8293 137.756H59.7073V140.878H62.8293V137.756Z" fill="black"/>
<path d="M69.0732 137.756H65.9512V140.878H69.0732V137.756Z" fill="black"/>
<path d="M72.1951 137.756H69.0732V140.878H72.1951V137.756Z" fill="black"/>
<path d="M75.3171 137.756H72.1951V140.878H75.3171V137.756Z" fill="black"/>
<path d="M81.561 137.756H78.439V140.878H81.561V137.756Z" fill="black"/>
<path d="M90.9268 137.756H87.8049V140.878H90.9268V137.756Z" fill="black"/>
<path d="M97.1707 137.756H94.0488V140.878H97.1707V137.756Z" fill="black"/>
<path d="M100.293 137.756H97.1707V140.878H100.293V137.756Z" fill="black"/>
<path d="M106.537 137.756H103.415V140.878H106.537V137.756Z" fill="black"/>
<path d="M109.659 137.756H106.537V140.878H109.659V137.756Z" fill="black"/>
<path d="M119.024 137.756H115.902V140.878H119.024V137.756Z" fill="black"/>
<path d="M122.146 137.756H119.024V140.878H122.146V137.756Z" fill="black"/>
<path d="M134.634 137.756H131.512V140.878H134.634V137.756Z" fill="black"/>
<path d="M19.122 140.878H16V144H19.122V140.878Z" fill="black"/>
<path d="M22.2439 140.878H19.122V144H22.2439V140.878Z" fill="black"/>
<path d="M25.3659 140.878H22.2439V144H25.3659V140.878Z" fill="black"/>
<path d="M28.4878 140.878H25.3659V144H28.4878V140.878Z" fill="black"/>
<path d="M31.6098 140.878H28.4878V144H31.6098V140.878Z" fill="black"/>
<path d="M34.7317 140.878H31.6098V144H34.7317V140.878Z" fill="black"/>
<path d="M37.8537 140.878H34.7317V144H37.8537V140.878Z" fill="black"/>
<path d="M44.0976 140.878H40.9756V144H44.0976V140.878Z" fill="black"/>
<path d="M59.7073 140.878H56.5854V144H59.7073V140.878Z" fill="black"/>
<path d="M69.0732 140.878H65.9512V144H69.0732V140.878Z" fill="black"/>
<path d="M72.1951 140.878H69.0732V144H72.1951V140.878Z" fill="black"/>
<path d="M81.561 140.878H78.439V144H81.561V140.878Z" fill="black"/>
<path d="M84.6829 140.878H81.561V144H84.6829V140.878Z" fill="black"/>
<path d="M90.9268 140.878H87.8049V144H90.9268V140.878Z" fill="black"/>
<path d="M97.1707 140.878H94.0488V144H97.1707V140.878Z" fill="black"/>
<path d="M106.537 140.878H103.415V144H106.537V140.878Z" fill="black"/>
<path d="M115.902 140.878H112.78V144H115.902V140.878Z" fill="black"/>
<path d="M119.024 140.878H115.902V144H119.024V140.878Z" fill="black"/>
<path d="M137.756 140.878H134.634V144H137.756V140.878Z" fill="black"/>
<path d="M144 140.878H140.878V144H144V140.878Z" fill="black"/>
</svg>
